<?xml version="1.0" encoding="UTF-8"?>
<!--Generator: Apple Native CoreSVG 175.5-->
<!DOCTYPE svg
PUBLIC "-//W3C//DTD SVG 1.1//EN"
       "http://www.w3.org/Graphics/SVG/1.1/DTD/svg11.dtd">
<svg version="1.1" xmlns="http://www.w3.org/2000/svg" xmlns:xlink="http://www.w3.org/1999/xlink" width="3300" height="2200">
 <!--glyph: "", point size: 100.0, font version: "18.0d12e2", template writer version: "101"-->
 <g id="Notes">
  <rect height="2200" id="artboard" style="fill:white;opacity:1" width="3300" x="0" y="0"/>
  <line style="fill:none;stroke:black;opacity:1;stroke-width:0.5;" x1="263" x2="3036" y1="292" y2="292"/>
  <text style="stroke:none;fill:black;font-family:sans-serif;font-size:13;font-weight:bold;" transform="matrix(1 0 0 1 263 322)">Weight/Scale Variations</text>
  <text style="stroke:none;fill:black;font-family:sans-serif;font-size:13;text-anchor:middle;" transform="matrix(1 0 0 1 559.711 322)">Ultralight</text>
  <text style="stroke:none;fill:black;font-family:sans-serif;font-size:13;text-anchor:middle;" transform="matrix(1 0 0 1 856.422 322)">Thin</text>
  <text style="stroke:none;fill:black;font-family:sans-serif;font-size:13;text-anchor:middle;" transform="matrix(1 0 0 1 1153.13 322)">Light</text>
  <text style="stroke:none;fill:black;font-family:sans-serif;font-size:13;text-anchor:middle;" transform="matrix(1 0 0 1 1449.84 322)">Regular</text>
  <text style="stroke:none;fill:black;font-family:sans-serif;font-size:13;text-anchor:middle;" transform="matrix(1 0 0 1 1746.56 322)">Medium</text>
  <text style="stroke:none;fill:black;font-family:sans-serif;font-size:13;text-anchor:middle;" transform="matrix(1 0 0 1 2043.27 322)">Semibold</text>
  <text style="stroke:none;fill:black;font-family:sans-serif;font-size:13;text-anchor:middle;" transform="matrix(1 0 0 1 2339.98 322)">Bold</text>
  <text style="stroke:none;fill:black;font-family:sans-serif;font-size:13;text-anchor:middle;" transform="matrix(1 0 0 1 2636.69 322)">Heavy</text>
  <text style="stroke:none;fill:black;font-family:sans-serif;font-size:13;text-anchor:middle;" transform="matrix(1 0 0 1 2933.4 322)">Black</text>
  <line style="fill:none;stroke:black;opacity:1;stroke-width:0.5;" x1="263" x2="3036" y1="1903" y2="1903"/>
  <g transform="matrix(1 0 0 1 263 1933)">
   <path d="M9.24805 0.830078C13.5547 0.830078 17.1387-2.74414 17.1387-7.05078C17.1387-11.3574 13.5449-14.9316 9.23828-14.9316C4.94141-14.9316 1.36719-11.3574 1.36719-7.05078C1.36719-2.74414 4.95117 0.830078 9.24805 0.830078ZM9.24805-0.654297C5.70312-0.654297 2.87109-3.49609 2.87109-7.05078C2.87109-10.6055 5.69336-13.4473 9.23828-13.4473C12.793-13.4473 15.6445-10.6055 15.6445-7.05078C15.6445-3.49609 12.8027-0.654297 9.24805-0.654297ZM5.6543-7.05078C5.6543-6.62109 5.95703-6.32812 6.40625-6.32812L8.50586-6.32812L8.50586-4.20898C8.50586-3.76953 8.79883-3.4668 9.22852-3.4668C9.67773-3.4668 9.9707-3.76953 9.9707-4.20898L9.9707-6.32812L12.0898-6.32812C12.5293-6.32812 12.832-6.62109 12.832-7.05078C12.832-7.49023 12.5293-7.79297 12.0898-7.79297L9.9707-7.79297L9.9707-9.90234C9.9707-10.3516 9.67773-10.6543 9.22852-10.6543C8.79883-10.6543 8.50586-10.3516 8.50586-9.90234L8.50586-7.79297L6.40625-7.79297C5.95703-7.79297 5.6543-7.49023 5.6543-7.05078Z"/>
  </g>
  <g transform="matrix(1 0 0 1 281.867 1933)">
   <path d="M11.709 2.91016C17.1582 2.91016 21.6699-1.61133 21.6699-7.05078C21.6699-12.5 17.1484-17.0117 11.6992-17.0117C6.25977-17.0117 1.74805-12.5 1.74805-7.05078C1.74805-1.61133 6.26953 2.91016 11.709 2.91016ZM11.709 1.25C7.09961 1.25 3.41797-2.44141 3.41797-7.05078C3.41797-11.6602 7.08984-15.3516 11.6992-15.3516C16.3086-15.3516 20.0098-11.6602 20.0098-7.05078C20.0098-2.44141 16.3184 1.25 11.709 1.25ZM7.17773-7.05078C7.17773-6.57227 7.50977-6.25 8.00781-6.25L10.8789-6.25L10.8789-3.36914C10.8789-2.88086 11.2109-2.53906 11.6895-2.53906C12.1777-2.53906 12.5195-2.87109 12.5195-3.36914L12.5195-6.25L15.4004-6.25C15.8887-6.25 16.2305-6.57227 16.2305-7.05078C16.2305-7.53906 15.8887-7.88086 15.4004-7.88086L12.5195-7.88086L12.5195-10.752C12.5195-11.25 12.1777-11.5918 11.6895-11.5918C11.2109-11.5918 10.8789-11.25 10.8789-10.752L10.8789-7.88086L8.00781-7.88086C7.50977-7.88086 7.17773-7.53906 7.17773-7.05078Z"/>
  </g>
  <g transform="matrix(1 0 0 1 305.646 1933)">
   <path d="M14.9707 5.66406C21.9336 5.66406 27.6953-0.0976562 27.6953-7.05078C27.6953-14.0137 21.9238-19.7754 14.9609-19.7754C8.00781-19.7754 2.25586-14.0137 2.25586-7.05078C2.25586-0.0976562 8.01758 5.66406 14.9707 5.66406ZM14.9707 3.84766C8.93555 3.84766 4.08203-1.01562 4.08203-7.05078C4.08203-13.0957 8.92578-17.9492 14.9609-17.9492C21.0059-17.9492 25.8691-13.0957 25.8691-7.05078C25.8691-1.01562 21.0156 3.84766 14.9707 3.84766ZM9.19922-7.05078C9.19922-6.5332 9.57031-6.17188 10.1172-6.17188L14.0625-6.17188L14.0625-2.2168C14.0625-1.67969 14.4336-1.29883 14.9512-1.29883C15.4883-1.29883 15.8594-1.66992 15.8594-2.2168L15.8594-6.17188L19.8145-6.17188C20.3516-6.17188 20.7324-6.5332 20.7324-7.05078C20.7324-7.59766 20.3613-7.96875 19.8145-7.96875L15.8594-7.96875L15.8594-11.9141C15.8594-12.4609 15.4883-12.8418 14.9512-12.8418C14.4336-12.8418 14.0625-12.4609 14.0625-11.9141L14.0625-7.96875L10.1172-7.96875C9.57031-7.96875 9.19922-7.59766 9.19922-7.05078Z"/>
  </g>
  <text style="stroke:none;fill:black;font-family:sans-serif;font-size:13;font-weight:bold;" transform="matrix(1 0 0 1 263 1953)">Design Variations</text>
  <text style="stroke:none;fill:black;font-family:sans-serif;font-size:13;" transform="matrix(1 0 0 1 263 1971)">Symbols are supported in up to nine weights and three scales.</text>
  <text style="stroke:none;fill:black;font-family:sans-serif;font-size:13;" transform="matrix(1 0 0 1 263 1989)">For optimal layout with text and other symbols, vertically align</text>
  <text style="stroke:none;fill:black;font-family:sans-serif;font-size:13;" transform="matrix(1 0 0 1 263 2007)">symbols with the adjacent text.</text>
  <line style="fill:none;stroke:#00AEEF;stroke-width:0.5;opacity:1.0;" x1="776" x2="776" y1="1919" y2="1933"/>
  <g transform="matrix(1 0 0 1 776 1933)">
   <path d="M3.31055 0.15625C3.82812 0.15625 4.08203-0.0390625 4.26758-0.585938L5.52734-4.0332L11.2891-4.0332L12.5488-0.585938C12.7344-0.0390625 12.9883 0.15625 13.4961 0.15625C14.0137 0.15625 14.3457-0.15625 14.3457-0.644531C14.3457-0.810547 14.3164-0.966797 14.2383-1.17188L9.6582-13.3691C9.43359-13.9648 9.0332-14.2676 8.4082-14.2676C7.80273-14.2676 7.39258-13.9746 7.17773-13.3789L2.59766-1.16211C2.51953-0.957031 2.49023-0.800781 2.49023-0.634766C2.49023-0.146484 2.80273 0.15625 3.31055 0.15625ZM6.00586-5.51758L8.37891-12.0898L8.42773-12.0898L10.8008-5.51758Z"/>
  </g>
  <line style="fill:none;stroke:#00AEEF;stroke-width:0.5;opacity:1.0;" x1="793.197" x2="793.197" y1="1919" y2="1933"/>
  <text style="stroke:none;fill:black;font-family:sans-serif;font-size:13;font-weight:bold;" transform="matrix(1 0 0 1 776 1953)">Margins</text>
  <text style="stroke:none;fill:black;font-family:sans-serif;font-size:13;" transform="matrix(1 0 0 1 776 1971)">Leading and trailing margins on the left and right side of each symbol</text>
  <text style="stroke:none;fill:black;font-family:sans-serif;font-size:13;" transform="matrix(1 0 0 1 776 1989)">can be adjusted by modifying the x-location of the margin guidelines.</text>
  <text style="stroke:none;fill:black;font-family:sans-serif;font-size:13;" transform="matrix(1 0 0 1 776 2007)">Modifications are automatically applied proportionally to all</text>
  <text style="stroke:none;fill:black;font-family:sans-serif;font-size:13;" transform="matrix(1 0 0 1 776 2025)">scales and weights.</text>
  <g transform="matrix(1 0 0 1 1289 1933)">
   <path d="M2.8418 1.86523L4.54102 3.57422C5.40039 4.44336 6.38672 4.38477 7.31445 3.35938L18.0078-8.42773L17.041-9.4043L6.42578 2.27539C6.07422 2.67578 5.74219 2.77344 5.27344 2.30469L4.10156 1.14258C3.63281 0.683594 3.74023 0.341797 4.14062-0.0195312L15.6152-10.8203L14.6387-11.7871L3.04688-0.898438C2.06055 0.0195312 1.98242 0.996094 2.8418 1.86523ZM9.25781-16.3281C8.83789-15.918 8.80859-15.3418 9.04297-14.9512C9.27734-14.5898 9.73633-14.3555 10.3809-14.5215C11.8457-14.8633 13.3691-14.9219 14.7949-13.9844L14.209-12.5293C13.8672-11.6992 14.043-11.1133 14.5801-10.5664L16.875-8.25195C17.3633-7.76367 17.7734-7.74414 18.3398-7.8418L19.4043-8.03711L20.0684-7.36328L20.0293-6.80664C19.9902-6.30859 20.1172-5.92773 20.6055-5.44922L21.3672-4.70703C21.8457-4.22852 22.4609-4.19922 22.9297-4.66797L25.8398-7.58789C26.3086-8.05664 26.2891-8.65234 25.8105-9.13086L25.0391-9.89258C24.5605-10.3711 24.1895-10.5273 23.7109-10.4883L23.1348-10.4395L22.4902-11.0742L22.7344-12.1973C22.8613-12.7637 22.7051-13.2031 22.1191-13.7891L19.9219-15.9766C16.582-19.2969 12.1484-19.2188 9.25781-16.3281ZM10.752-15.957C13.1836-17.7344 16.4746-17.4316 18.7012-15.2051L21.1328-12.793C21.3672-12.5586 21.4062-12.373 21.3379-12.0312L21.0156-10.5469L22.5195-9.0625L23.5059-9.12109C23.7598-9.13086 23.8379-9.11133 24.0332-8.91602L24.6094-8.33984L22.168-5.89844L21.5918-6.47461C21.3965-6.66992 21.3672-6.74805 21.377-7.01172L21.4453-7.98828L19.9512-9.47266L18.4277-9.21875C18.1055-9.15039 17.959-9.17969 17.7148-9.41406L15.7129-11.416C15.459-11.6504 15.4297-11.8164 15.5859-12.1875L16.4648-14.2773C14.9023-15.7324 12.8711-16.3574 10.8398-15.7617C10.6836-15.7227 10.625-15.8496 10.752-15.957Z"/>
  </g>
  <text style="stroke:none;fill:black;font-family:sans-serif;font-size:13;font-weight:bold;" transform="matrix(1 0 0 1 1289 1953)">Exporting</text>
  <text style="stroke:none;fill:black;font-family:sans-serif;font-size:13;" transform="matrix(1 0 0 1 1289 1971)">Symbols should be outlined when exporting to ensure the</text>
  <text style="stroke:none;fill:black;font-family:sans-serif;font-size:13;" transform="matrix(1 0 0 1 1289 1989)">design is preserved when submitting to Xcode.</text>
  <text id="template-version" style="stroke:none;fill:black;font-family:sans-serif;font-size:13;text-anchor:end;" transform="matrix(1 0 0 1 3036 1933)">Template v.4.0</text>
  <text style="stroke:none;fill:black;font-family:sans-serif;font-size:13;text-anchor:end;" transform="matrix(1 0 0 1 3036 1951)">Requires Xcode 14 or greater</text>
  <text id="descriptive-name" style="stroke:none;fill:black;font-family:sans-serif;font-size:13;text-anchor:end;" transform="matrix(1 0 0 1 3036 1969)">Generated from nav.cancel.SFSymbol</text>
  <text style="stroke:none;fill:black;font-family:sans-serif;font-size:13;text-anchor:end;" transform="matrix(1 0 0 1 3036 1987)">Typeset at 100 points</text>
  <text style="stroke:none;fill:black;font-family:sans-serif;font-size:13;" transform="matrix(1 0 0 1 263 726)">Small</text>
  <text style="stroke:none;fill:black;font-family:sans-serif;font-size:13;" transform="matrix(1 0 0 1 263 1156)">Medium</text>
  <text style="stroke:none;fill:black;font-family:sans-serif;font-size:13;" transform="matrix(1 0 0 1 263 1586)">Large</text>
 </g>
 <g id="Guides">
  <g id="H-reference" style="fill:#27AAE1;stroke:none;" transform="matrix(1 0 0 1 339 696)">
   <path d="M0.993654 0L3.63775 0L29.3281-67.1323L30.0303-67.1323L30.0303-70.459L28.1226-70.459ZM11.6885-24.4799L46.9815-24.4799L46.2315-26.7285L12.4385-26.7285ZM55.1196 0L57.7637 0L30.6382-70.459L29.4326-70.459L29.4326-67.1323Z"/>
  </g>
  <line id="Baseline-S" style="fill:none;stroke:#27AAE1;opacity:1;stroke-width:0.5;" x1="263" x2="3036" y1="696" y2="696"/>
  <line id="Capline-S" style="fill:none;stroke:#27AAE1;opacity:1;stroke-width:0.5;" x1="263" x2="3036" y1="625.541" y2="625.541"/>
  <g id="H-reference" style="fill:#27AAE1;stroke:none;" transform="matrix(1 0 0 1 339 1126)">
   <path d="M0.993654 0L3.63775 0L29.3281-67.1323L30.0303-67.1323L30.0303-70.459L28.1226-70.459ZM11.6885-24.4799L46.9815-24.4799L46.2315-26.7285L12.4385-26.7285ZM55.1196 0L57.7637 0L30.6382-70.459L29.4326-70.459L29.4326-67.1323Z"/>
  </g>
  <line id="Baseline-M" style="fill:none;stroke:#27AAE1;opacity:1;stroke-width:0.5;" x1="263" x2="3036" y1="1126" y2="1126"/>
  <line id="Capline-M" style="fill:none;stroke:#27AAE1;opacity:1;stroke-width:0.5;" x1="263" x2="3036" y1="1055.54" y2="1055.54"/>
  <g id="H-reference" style="fill:#27AAE1;stroke:none;" transform="matrix(1 0 0 1 339 1556)">
   <path d="M0.993654 0L3.63775 0L29.3281-67.1323L30.0303-67.1323L30.0303-70.459L28.1226-70.459ZM11.6885-24.4799L46.9815-24.4799L46.2315-26.7285L12.4385-26.7285ZM55.1196 0L57.7637 0L30.6382-70.459L29.4326-70.459L29.4326-67.1323Z"/>
  </g>
  <line id="Baseline-L" style="fill:none;stroke:#27AAE1;opacity:1;stroke-width:0.5;" x1="263" x2="3036" y1="1556" y2="1556"/>
  <line id="Capline-L" style="fill:none;stroke:#27AAE1;opacity:1;stroke-width:0.5;" x1="263" x2="3036" y1="1485.54" y2="1485.54"/>
  <line id="left-margin-Regular-M" style="fill:none;stroke:#FF3B30;stroke-width:0.5;opacity:1.0;" x1="1414.69" x2="1414.69" y1="1030.79" y2="1150.12"/>
  <line id="right-margin-Regular-M" style="fill:none;stroke:#FF3B30;stroke-width:0.5;opacity:1.0;" x1="1485" x2="1485" y1="1030.79" y2="1150.12"/>
 </g>
 <g id="Symbols">
  <g id="Black-L" transform="matrix(1 0 0 1 2888 1556)">
   <path d="M3.6458 10.3083C2.6798 10.3083 1.7048 9.93827 0.966798 9.20027C-0.510202 7.72327-0.510202 5.32827 0.966798 3.84127L40.0378-35.2297L0.966798-74.3017C-0.510202-75.7787-0.510202-78.1827 0.966798-79.6597C2.4438-81.1367 4.8388-81.1367 6.3248-79.6597L88.9748 2.98927C90.4518 4.46627 90.4518 6.86127 88.9748 8.34827C87.4978 9.83427 85.1028 9.82527 83.6158 8.34827L45.3968-29.8717L6.3248 9.20027C5.5868 9.93827 4.6208 10.3073 3.6458 10.3073ZM54.7688-40.8157C53.8038-40.8157 52.8288-41.1847 52.0898-41.9237C50.6128-43.4007 50.6128-45.7957 52.0898-47.2817L84.4678-79.6597C85.9448-81.1367 88.3398-81.1367 89.8268-79.6597C91.3128-78.1827 91.3038-75.7877 89.8268-74.3017L57.4488-41.9237C56.7098-41.1847 55.7448-40.8157 54.7688-40.8157Z"/>
  </g>
  <g id="Heavy-L" transform="matrix(1 0 0 1 2591.29 1556)">
   <path d="M3.6458 10.3083C2.6798 10.3083 1.7048 9.93827 0.966798 9.20027C-0.510202 7.72327-0.510202 5.32827 0.966798 3.84127L40.0378-35.2297L0.966798-74.3017C-0.510202-75.7787-0.510202-78.1827 0.966798-79.6597C2.4438-81.1367 4.8388-81.1367 6.3248-79.6597L88.9748 2.98927C90.4518 4.46627 90.4518 6.86127 88.9748 8.34827C87.4978 9.83427 85.1028 9.82527 83.6158 8.34827L45.3968-29.8717L6.3248 9.20027C5.5868 9.93827 4.6208 10.3073 3.6458 10.3073ZM54.7688-40.8157C53.8038-40.8157 52.8288-41.1847 52.0898-41.9237C50.6128-43.4007 50.6128-45.7957 52.0898-47.2817L84.4678-79.6597C85.9448-81.1367 88.3398-81.1367 89.8268-79.6597C91.3128-78.1827 91.3038-75.7877 89.8268-74.3017L57.4488-41.9237C56.7098-41.1847 55.7448-40.8157 54.7688-40.8157Z"/>
  </g>
  <g id="Bold-L" transform="matrix(1 0 0 1 2294.58 1556)">
   <path d="M3.6458 10.3083C2.6798 10.3083 1.7048 9.93827 0.966798 9.20027C-0.510202 7.72327-0.510202 5.32827 0.966798 3.84127L40.0378-35.2297L0.966798-74.3017C-0.510202-75.7787-0.510202-78.1827 0.966798-79.6597C2.4438-81.1367 4.8388-81.1367 6.3248-79.6597L88.9748 2.98927C90.4518 4.46627 90.4518 6.86127 88.9748 8.34827C87.4978 9.83427 85.1028 9.82527 83.6158 8.34827L45.3968-29.8717L6.3248 9.20027C5.5868 9.93827 4.6208 10.3073 3.6458 10.3073ZM54.7688-40.8157C53.8038-40.8157 52.8288-41.1847 52.0898-41.9237C50.6128-43.4007 50.6128-45.7957 52.0898-47.2817L84.4678-79.6597C85.9448-81.1367 88.3398-81.1367 89.8268-79.6597C91.3128-78.1827 91.3038-75.7877 89.8268-74.3017L57.4488-41.9237C56.7098-41.1847 55.7448-40.8157 54.7688-40.8157Z"/>
  </g>
  <g id="Semibold-L" transform="matrix(1 0 0 1 1997.87 1556)">
   <path d="M3.6458 10.3083C2.6798 10.3083 1.7048 9.93827 0.966798 9.20027C-0.510202 7.72327-0.510202 5.32827 0.966798 3.84127L40.0378-35.2297L0.966798-74.3017C-0.510202-75.7787-0.510202-78.1827 0.966798-79.6597C2.4438-81.1367 4.8388-81.1367 6.3248-79.6597L88.9748 2.98927C90.4518 4.46627 90.4518 6.86127 88.9748 8.34827C87.4978 9.83427 85.1028 9.82527 83.6158 8.34827L45.3968-29.8717L6.3248 9.20027C5.5868 9.93827 4.6208 10.3073 3.6458 10.3073ZM54.7688-40.8157C53.8038-40.8157 52.8288-41.1847 52.0898-41.9237C50.6128-43.4007 50.6128-45.7957 52.0898-47.2817L84.4678-79.6597C85.9448-81.1367 88.3398-81.1367 89.8268-79.6597C91.3128-78.1827 91.3038-75.7877 89.8268-74.3017L57.4488-41.9237C56.7098-41.1847 55.7448-40.8157 54.7688-40.8157Z"/>
  </g>
  <g id="Medium-L" transform="matrix(1 0 0 1 1701.16 1556)">
   <path d="M3.6458 10.3083C2.6798 10.3083 1.7048 9.93827 0.966798 9.20027C-0.510202 7.72327-0.510202 5.32827 0.966798 3.84127L40.0378-35.2297L0.966798-74.3017C-0.510202-75.7787-0.510202-78.1827 0.966798-79.6597C2.4438-81.1367 4.8388-81.1367 6.3248-79.6597L88.9748 2.98927C90.4518 4.46627 90.4518 6.86127 88.9748 8.34827C87.4978 9.83427 85.1028 9.82527 83.6158 8.34827L45.3968-29.8717L6.3248 9.20027C5.5868 9.93827 4.6208 10.3073 3.6458 10.3073ZM54.7688-40.8157C53.8038-40.8157 52.8288-41.1847 52.0898-41.9237C50.6128-43.4007 50.6128-45.7957 52.0898-47.2817L84.4678-79.6597C85.9448-81.1367 88.3398-81.1367 89.8268-79.6597C91.3128-78.1827 91.3038-75.7877 89.8268-74.3017L57.4488-41.9237C56.7098-41.1847 55.7448-40.8157 54.7688-40.8157Z"/>
  </g>
  <g id="Regular-L" transform="matrix(1 0 0 1 1404.45 1556)">
   <path d="M3.6458 10.3083C2.6798 10.3083 1.7048 9.93827 0.966798 9.20027C-0.510202 7.72327-0.510202 5.32827 0.966798 3.84127L40.0378-35.2297L0.966798-74.3017C-0.510202-75.7787-0.510202-78.1827 0.966798-79.6597C2.4438-81.1367 4.8388-81.1367 6.3248-79.6597L88.9748 2.98927C90.4518 4.46627 90.4518 6.86127 88.9748 8.34827C87.4978 9.83427 85.1028 9.82527 83.6158 8.34827L45.3968-29.8717L6.3248 9.20027C5.5868 9.93827 4.6208 10.3073 3.6458 10.3073ZM54.7688-40.8157C53.8038-40.8157 52.8288-41.1847 52.0898-41.9237C50.6128-43.4007 50.6128-45.7957 52.0898-47.2817L84.4678-79.6597C85.9448-81.1367 88.3398-81.1367 89.8268-79.6597C91.3128-78.1827 91.3038-75.7877 89.8268-74.3017L57.4488-41.9237C56.7098-41.1847 55.7448-40.8157 54.7688-40.8157Z"/>
  </g>
  <g id="Light-L" transform="matrix(1 0 0 1 1107.74 1556)">
   <path d="M3.6458 10.3083C2.6798 10.3083 1.7048 9.93827 0.966798 9.20027C-0.510202 7.72327-0.510202 5.32827 0.966798 3.84127L40.0378-35.2297L0.966798-74.3017C-0.510202-75.7787-0.510202-78.1827 0.966798-79.6597C2.4438-81.1367 4.8388-81.1367 6.3248-79.6597L88.9748 2.98927C90.4518 4.46627 90.4518 6.86127 88.9748 8.34827C87.4978 9.83427 85.1028 9.82527 83.6158 8.34827L45.3968-29.8717L6.3248 9.20027C5.5868 9.93827 4.6208 10.3073 3.6458 10.3073ZM54.7688-40.8157C53.8038-40.8157 52.8288-41.1847 52.0898-41.9237C50.6128-43.4007 50.6128-45.7957 52.0898-47.2817L84.4678-79.6597C85.9448-81.1367 88.3398-81.1367 89.8268-79.6597C91.3128-78.1827 91.3038-75.7877 89.8268-74.3017L57.4488-41.9237C56.7098-41.1847 55.7448-40.8157 54.7688-40.8157Z"/>
  </g>
  <g id="Thin-L" transform="matrix(1 0 0 1 811.025 1556)">
   <path d="M3.6458 10.3083C2.6798 10.3083 1.7048 9.93827 0.966798 9.20027C-0.510202 7.72327-0.510202 5.32827 0.966798 3.84127L40.0378-35.2297L0.966798-74.3017C-0.510202-75.7787-0.510202-78.1827 0.966798-79.6597C2.4438-81.1367 4.8388-81.1367 6.3248-79.6597L88.9748 2.98927C90.4518 4.46627 90.4518 6.86127 88.9748 8.34827C87.4978 9.83427 85.1028 9.82527 83.6158 8.34827L45.3968-29.8717L6.3248 9.20027C5.5868 9.93827 4.6208 10.3073 3.6458 10.3073ZM54.7688-40.8157C53.8038-40.8157 52.8288-41.1847 52.0898-41.9237C50.6128-43.4007 50.6128-45.7957 52.0898-47.2817L84.4678-79.6597C85.9448-81.1367 88.3398-81.1367 89.8268-79.6597C91.3128-78.1827 91.3038-75.7877 89.8268-74.3017L57.4488-41.9237C56.7098-41.1847 55.7448-40.8157 54.7688-40.8157Z"/>
  </g>
  <g id="Ultralight-L" transform="matrix(1 0 0 1 514.314 1556)">
   <path d="M3.6458 10.3083C2.6798 10.3083 1.7048 9.93827 0.966798 9.20027C-0.510202 7.72327-0.510202 5.32827 0.966798 3.84127L40.0378-35.2297L0.966798-74.3017C-0.510202-75.7787-0.510202-78.1827 0.966798-79.6597C2.4438-81.1367 4.8388-81.1367 6.3248-79.6597L88.9748 2.98927C90.4518 4.46627 90.4518 6.86127 88.9748 8.34827C87.4978 9.83427 85.1028 9.82527 83.6158 8.34827L45.3968-29.8717L6.3248 9.20027C5.5868 9.93827 4.6208 10.3073 3.6458 10.3073ZM54.7688-40.8157C53.8038-40.8157 52.8288-41.1847 52.0898-41.9237C50.6128-43.4007 50.6128-45.7957 52.0898-47.2817L84.4678-79.6597C85.9448-81.1367 88.3398-81.1367 89.8268-79.6597C91.3128-78.1827 91.3038-75.7877 89.8268-74.3017L57.4488-41.9237C56.7098-41.1847 55.7448-40.8157 54.7688-40.8157Z"/>
  </g>
  <g id="Black-M" transform="matrix(1 0 0 1 2898.24 1126)">
   <path d="M2.7948 0.0704379C2.0458 0.0704379 1.2898-0.215562 0.717798-0.787562C-0.427202-1.93256-0.427202-3.78956 0.717798-4.94156L31.0058-35.2296L0.717798-65.5176C-0.427202-66.6626-0.427202-68.5266 0.717798-69.6716C1.8628-70.8166 3.7188-70.8166 4.8718-69.6716L68.9408-5.60256C70.0858-4.45756 70.0858-2.60056 68.9408-1.44856C67.7958-0.296562 65.9388-0.303562 64.7868-1.44856L35.1598-31.0766L4.8718-0.788562C4.2988-0.215562 3.5508 0.0704379 2.7948 0.0704379ZM42.4248-39.5596C41.6768-39.5596 40.9208-39.8466 40.3478-40.4186C39.2028-41.5636 39.2028-43.4206 40.3478-44.5726L65.4478-69.6716C66.5928-70.8166 68.4488-70.8166 69.6018-69.6716C70.7538-68.5266 70.7458-66.6706 69.6018-65.5176L44.5018-40.4186C43.9298-39.8466 43.1808-39.5596 42.4248-39.5596Z"/>
  </g>
  <g id="Heavy-M" transform="matrix(1 0 0 1 2601.53 1126)">
   <path d="M2.7948 0.0704379C2.0458 0.0704379 1.2898-0.215562 0.717798-0.787562C-0.427202-1.93256-0.427202-3.78956 0.717798-4.94156L31.0058-35.2296L0.717798-65.5176C-0.427202-66.6626-0.427202-68.5266 0.717798-69.6716C1.8628-70.8166 3.7188-70.8166 4.8718-69.6716L68.9408-5.60256C70.0858-4.45756 70.0858-2.60056 68.9408-1.44856C67.7958-0.296562 65.9388-0.303562 64.7868-1.44856L35.1598-31.0766L4.8718-0.788562C4.2988-0.215562 3.5508 0.0704379 2.7948 0.0704379ZM42.4248-39.5596C41.6768-39.5596 40.9208-39.8466 40.3478-40.4186C39.2028-41.5636 39.2028-43.4206 40.3478-44.5726L65.4478-69.6716C66.5928-70.8166 68.4488-70.8166 69.6018-69.6716C70.7538-68.5266 70.7458-66.6706 69.6018-65.5176L44.5018-40.4186C43.9298-39.8466 43.1808-39.5596 42.4248-39.5596Z"/>
  </g>
  <g id="Bold-M" transform="matrix(1 0 0 1 2304.82 1126)">
   <path d="M2.7948 0.0704379C2.0458 0.0704379 1.2898-0.215562 0.717798-0.787562C-0.427202-1.93256-0.427202-3.78956 0.717798-4.94156L31.0058-35.2296L0.717798-65.5176C-0.427202-66.6626-0.427202-68.5266 0.717798-69.6716C1.8628-70.8166 3.7188-70.8166 4.8718-69.6716L68.9408-5.60256C70.0858-4.45756 70.0858-2.60056 68.9408-1.44856C67.7958-0.296562 65.9388-0.303562 64.7868-1.44856L35.1598-31.0766L4.8718-0.788562C4.2988-0.215562 3.5508 0.0704379 2.7948 0.0704379ZM42.4248-39.5596C41.6768-39.5596 40.9208-39.8466 40.3478-40.4186C39.2028-41.5636 39.2028-43.4206 40.3478-44.5726L65.4478-69.6716C66.5928-70.8166 68.4488-70.8166 69.6018-69.6716C70.7538-68.5266 70.7458-66.6706 69.6018-65.5176L44.5018-40.4186C43.9298-39.8466 43.1808-39.5596 42.4248-39.5596Z"/>
  </g>
  <g id="Semibold-M" transform="matrix(1 0 0 1 2008.11 1126)">
   <path d="M2.7948 0.0704379C2.0458 0.0704379 1.2898-0.215562 0.717798-0.787562C-0.427202-1.93256-0.427202-3.78956 0.717798-4.94156L31.0058-35.2296L0.717798-65.5176C-0.427202-66.6626-0.427202-68.5266 0.717798-69.6716C1.8628-70.8166 3.7188-70.8166 4.8718-69.6716L68.9408-5.60256C70.0858-4.45756 70.0858-2.60056 68.9408-1.44856C67.7958-0.296562 65.9388-0.303562 64.7868-1.44856L35.1598-31.0766L4.8718-0.788562C4.2988-0.215562 3.5508 0.0704379 2.7948 0.0704379ZM42.4248-39.5596C41.6768-39.5596 40.9208-39.8466 40.3478-40.4186C39.2028-41.5636 39.2028-43.4206 40.3478-44.5726L65.4478-69.6716C66.5928-70.8166 68.4488-70.8166 69.6018-69.6716C70.7538-68.5266 70.7458-66.6706 69.6018-65.5176L44.5018-40.4186C43.9298-39.8466 43.1808-39.5596 42.4248-39.5596Z"/>
  </g>
  <g id="Medium-M" transform="matrix(1 0 0 1 1711.4 1126)">
   <path d="M2.7948 0.0704379C2.0458 0.0704379 1.2898-0.215562 0.717798-0.787562C-0.427202-1.93256-0.427202-3.78956 0.717798-4.94156L31.0058-35.2296L0.717798-65.5176C-0.427202-66.6626-0.427202-68.5266 0.717798-69.6716C1.8628-70.8166 3.7188-70.8166 4.8718-69.6716L68.9408-5.60256C70.0858-4.45756 70.0858-2.60056 68.9408-1.44856C67.7958-0.296562 65.9388-0.303562 64.7868-1.44856L35.1598-31.0766L4.8718-0.788562C4.2988-0.215562 3.5508 0.0704379 2.7948 0.0704379ZM42.4248-39.5596C41.6768-39.5596 40.9208-39.8466 40.3478-40.4186C39.2028-41.5636 39.2028-43.4206 40.3478-44.5726L65.4478-69.6716C66.5928-70.8166 68.4488-70.8166 69.6018-69.6716C70.7538-68.5266 70.7458-66.6706 69.6018-65.5176L44.5018-40.4186C43.9298-39.8466 43.1808-39.5596 42.4248-39.5596Z"/>
  </g>
  <g id="Regular-M" transform="matrix(1 0 0 1 1414.69 1126)">
   <path d="M2.7948 0.0704379C2.0458 0.0704379 1.2898-0.215562 0.717798-0.787562C-0.427202-1.93256-0.427202-3.78956 0.717798-4.94156L31.0058-35.2296L0.717798-65.5176C-0.427202-66.6626-0.427202-68.5266 0.717798-69.6716C1.8628-70.8166 3.7188-70.8166 4.8718-69.6716L68.9408-5.60256C70.0858-4.45756 70.0858-2.60056 68.9408-1.44856C67.7958-0.296562 65.9388-0.303562 64.7868-1.44856L35.1598-31.0766L4.8718-0.788562C4.2988-0.215562 3.5508 0.0704379 2.7948 0.0704379ZM42.4248-39.5596C41.6768-39.5596 40.9208-39.8466 40.3478-40.4186C39.2028-41.5636 39.2028-43.4206 40.3478-44.5726L65.4478-69.6716C66.5928-70.8166 68.4488-70.8166 69.6018-69.6716C70.7538-68.5266 70.7458-66.6706 69.6018-65.5176L44.5018-40.4186C43.9298-39.8466 43.1808-39.5596 42.4248-39.5596Z"/>
  </g>
  <g id="Light-M" transform="matrix(1 0 0 1 1117.97 1126)">
   <path d="M2.7948 0.0704379C2.0458 0.0704379 1.2898-0.215562 0.717798-0.787562C-0.427202-1.93256-0.427202-3.78956 0.717798-4.94156L31.0058-35.2296L0.717798-65.5176C-0.427202-66.6626-0.427202-68.5266 0.717798-69.6716C1.8628-70.8166 3.7188-70.8166 4.8718-69.6716L68.9408-5.60256C70.0858-4.45756 70.0858-2.60056 68.9408-1.44856C67.7958-0.296562 65.9388-0.303562 64.7868-1.44856L35.1598-31.0766L4.8718-0.788562C4.2988-0.215562 3.5508 0.0704379 2.7948 0.0704379ZM42.4248-39.5596C41.6768-39.5596 40.9208-39.8466 40.3478-40.4186C39.2028-41.5636 39.2028-43.4206 40.3478-44.5726L65.4478-69.6716C66.5928-70.8166 68.4488-70.8166 69.6018-69.6716C70.7538-68.5266 70.7458-66.6706 69.6018-65.5176L44.5018-40.4186C43.9298-39.8466 43.1808-39.5596 42.4248-39.5596Z"/>
  </g>
  <g id="Thin-M" transform="matrix(1 0 0 1 821.263 1126)">
   <path d="M2.7948 0.0704379C2.0458 0.0704379 1.2898-0.215562 0.717798-0.787562C-0.427202-1.93256-0.427202-3.78956 0.717798-4.94156L31.0058-35.2296L0.717798-65.5176C-0.427202-66.6626-0.427202-68.5266 0.717798-69.6716C1.8628-70.8166 3.7188-70.8166 4.8718-69.6716L68.9408-5.60256C70.0858-4.45756 70.0858-2.60056 68.9408-1.44856C67.7958-0.296562 65.9388-0.303562 64.7868-1.44856L35.1598-31.0766L4.8718-0.788562C4.2988-0.215562 3.5508 0.0704379 2.7948 0.0704379ZM42.4248-39.5596C41.6768-39.5596 40.9208-39.8466 40.3478-40.4186C39.2028-41.5636 39.2028-43.4206 40.3478-44.5726L65.4478-69.6716C66.5928-70.8166 68.4488-70.8166 69.6018-69.6716C70.7538-68.5266 70.7458-66.6706 69.6018-65.5176L44.5018-40.4186C43.9298-39.8466 43.1808-39.5596 42.4248-39.5596Z"/>
  </g>
  <g id="Ultralight-M" transform="matrix(1 0 0 1 524.552 1126)">
   <path d="M2.7948 0.0704379C2.0458 0.0704379 1.2898-0.215562 0.717798-0.787562C-0.427202-1.93256-0.427202-3.78956 0.717798-4.94156L31.0058-35.2296L0.717798-65.5176C-0.427202-66.6626-0.427202-68.5266 0.717798-69.6716C1.8628-70.8166 3.7188-70.8166 4.8718-69.6716L68.9408-5.60256C70.0858-4.45756 70.0858-2.60056 68.9408-1.44856C67.7958-0.296562 65.9388-0.303562 64.7868-1.44856L35.1598-31.0766L4.8718-0.788562C4.2988-0.215562 3.5508 0.0704379 2.7948 0.0704379ZM42.4248-39.5596C41.6768-39.5596 40.9208-39.8466 40.3478-40.4186C39.2028-41.5636 39.2028-43.4206 40.3478-44.5726L65.4478-69.6716C66.5928-70.8166 68.4488-70.8166 69.6018-69.6716C70.7538-68.5266 70.7458-66.6706 69.6018-65.5176L44.5018-40.4186C43.9298-39.8466 43.1808-39.5596 42.4248-39.5596Z"/>
  </g>
  <g id="Black-S" transform="matrix(1 0 0 1 2905.9 696)">
   <path d="M2.15805-7.58934C1.57105-7.58934 0.980048-7.81334 0.531048-8.26234C-0.364952-9.15834-0.364952-10.6123 0.531048-11.5143L24.247-35.2303L0.531048-58.9453C-0.364952-59.8423-0.364952-61.3013 0.531048-62.1983C1.42805-63.0943 2.88205-63.0943 3.78405-62.1983L53.95-12.0313C54.847-11.1353 54.847-9.68134 53.95-8.77934C53.054-7.87734 51.6-7.88234 50.698-8.77934L27.499-31.9773L3.78405-8.26234C3.33605-7.81334 2.74905-7.58934 2.15805-7.58934ZM33.188-38.6203C32.602-38.6203 32.01-38.8443 31.562-39.2923C30.666-40.1893 30.666-41.6433 31.562-42.5453L51.215-62.1983C52.111-63.0943 53.565-63.0943 54.467-62.1983C55.37-61.3013 55.364-59.8473 54.467-58.9453L34.815-39.2923C34.366-38.8443 33.78-38.6203 33.188-38.6203Z"/>
  </g>
  <g id="Heavy-S" transform="matrix(1 0 0 1 2609.19 696)">
   <path d="M2.15805-7.58934C1.57105-7.58934 0.980048-7.81334 0.531048-8.26234C-0.364952-9.15834-0.364952-10.6123 0.531048-11.5143L24.247-35.2303L0.531048-58.9453C-0.364952-59.8423-0.364952-61.3013 0.531048-62.1983C1.42805-63.0943 2.88205-63.0943 3.78405-62.1983L53.95-12.0313C54.847-11.1353 54.847-9.68134 53.95-8.77934C53.054-7.87734 51.6-7.88234 50.698-8.77934L27.499-31.9773L3.78405-8.26234C3.33605-7.81334 2.74905-7.58934 2.15805-7.58934ZM33.188-38.6203C32.602-38.6203 32.01-38.8443 31.562-39.2923C30.666-40.1893 30.666-41.6433 31.562-42.5453L51.215-62.1983C52.111-63.0943 53.565-63.0943 54.467-62.1983C55.37-61.3013 55.364-59.8473 54.467-58.9453L34.815-39.2923C34.366-38.8443 33.78-38.6203 33.188-38.6203Z"/>
  </g>
  <g id="Bold-S" transform="matrix(1 0 0 1 2312.48 696)">
   <path d="M2.15805-7.58934C1.57105-7.58934 0.980048-7.81334 0.531048-8.26234C-0.364952-9.15834-0.364952-10.6123 0.531048-11.5143L24.247-35.2303L0.531048-58.9453C-0.364952-59.8423-0.364952-61.3013 0.531048-62.1983C1.42805-63.0943 2.88205-63.0943 3.78405-62.1983L53.95-12.0313C54.847-11.1353 54.847-9.68134 53.95-8.77934C53.054-7.87734 51.6-7.88234 50.698-8.77934L27.499-31.9773L3.78405-8.26234C3.33605-7.81334 2.74905-7.58934 2.15805-7.58934ZM33.188-38.6203C32.602-38.6203 32.01-38.8443 31.562-39.2923C30.666-40.1893 30.666-41.6433 31.562-42.5453L51.215-62.1983C52.111-63.0943 53.565-63.0943 54.467-62.1983C55.37-61.3013 55.364-59.8473 54.467-58.9453L34.815-39.2923C34.366-38.8443 33.78-38.6203 33.188-38.6203Z"/>
  </g>
  <g id="Semibold-S" transform="matrix(1 0 0 1 2015.77 696)">
   <path d="M2.15805-7.58934C1.57105-7.58934 0.980048-7.81334 0.531048-8.26234C-0.364952-9.15834-0.364952-10.6123 0.531048-11.5143L24.247-35.2303L0.531048-58.9453C-0.364952-59.8423-0.364952-61.3013 0.531048-62.1983C1.42805-63.0943 2.88205-63.0943 3.78405-62.1983L53.95-12.0313C54.847-11.1353 54.847-9.68134 53.95-8.77934C53.054-7.87734 51.6-7.88234 50.698-8.77934L27.499-31.9773L3.78405-8.26234C3.33605-7.81334 2.74905-7.58934 2.15805-7.58934ZM33.188-38.6203C32.602-38.6203 32.01-38.8443 31.562-39.2923C30.666-40.1893 30.666-41.6433 31.562-42.5453L51.215-62.1983C52.111-63.0943 53.565-63.0943 54.467-62.1983C55.37-61.3013 55.364-59.8473 54.467-58.9453L34.815-39.2923C34.366-38.8443 33.78-38.6203 33.188-38.6203Z"/>
  </g>
  <g id="Medium-S" transform="matrix(1 0 0 1 1719.06 696)">
   <path d="M2.15805-7.58934C1.57105-7.58934 0.980048-7.81334 0.531048-8.26234C-0.364952-9.15834-0.364952-10.6123 0.531048-11.5143L24.247-35.2303L0.531048-58.9453C-0.364952-59.8423-0.364952-61.3013 0.531048-62.1983C1.42805-63.0943 2.88205-63.0943 3.78405-62.1983L53.95-12.0313C54.847-11.1353 54.847-9.68134 53.95-8.77934C53.054-7.87734 51.6-7.88234 50.698-8.77934L27.499-31.9773L3.78405-8.26234C3.33605-7.81334 2.74905-7.58934 2.15805-7.58934ZM33.188-38.6203C32.602-38.6203 32.01-38.8443 31.562-39.2923C30.666-40.1893 30.666-41.6433 31.562-42.5453L51.215-62.1983C52.111-63.0943 53.565-63.0943 54.467-62.1983C55.37-61.3013 55.364-59.8473 54.467-58.9453L34.815-39.2923C34.366-38.8443 33.78-38.6203 33.188-38.6203Z"/>
  </g>
  <g id="Regular-S" transform="matrix(1 0 0 1 1422.35 696)">
   <path d="M2.15805-7.58934C1.57105-7.58934 0.980048-7.81334 0.531048-8.26234C-0.364952-9.15834-0.364952-10.6123 0.531048-11.5143L24.247-35.2303L0.531048-58.9453C-0.364952-59.8423-0.364952-61.3013 0.531048-62.1983C1.42805-63.0943 2.88205-63.0943 3.78405-62.1983L53.95-12.0313C54.847-11.1353 54.847-9.68134 53.95-8.77934C53.054-7.87734 51.6-7.88234 50.698-8.77934L27.499-31.9773L3.78405-8.26234C3.33605-7.81334 2.74905-7.58934 2.15805-7.58934ZM33.188-38.6203C32.602-38.6203 32.01-38.8443 31.562-39.2923C30.666-40.1893 30.666-41.6433 31.562-42.5453L51.215-62.1983C52.111-63.0943 53.565-63.0943 54.467-62.1983C55.37-61.3013 55.364-59.8473 54.467-58.9453L34.815-39.2923C34.366-38.8443 33.78-38.6203 33.188-38.6203Z"/>
  </g>
  <g id="Light-S" transform="matrix(1 0 0 1 1125.63 696)">
   <path d="M2.15805-7.58934C1.57105-7.58934 0.980048-7.81334 0.531048-8.26234C-0.364952-9.15834-0.364952-10.6123 0.531048-11.5143L24.247-35.2303L0.531048-58.9453C-0.364952-59.8423-0.364952-61.3013 0.531048-62.1983C1.42805-63.0943 2.88205-63.0943 3.78405-62.1983L53.95-12.0313C54.847-11.1353 54.847-9.68134 53.95-8.77934C53.054-7.87734 51.6-7.88234 50.698-8.77934L27.499-31.9773L3.78405-8.26234C3.33605-7.81334 2.74905-7.58934 2.15805-7.58934ZM33.188-38.6203C32.602-38.6203 32.01-38.8443 31.562-39.2923C30.666-40.1893 30.666-41.6433 31.562-42.5453L51.215-62.1983C52.111-63.0943 53.565-63.0943 54.467-62.1983C55.37-61.3013 55.364-59.8473 54.467-58.9453L34.815-39.2923C34.366-38.8443 33.78-38.6203 33.188-38.6203Z"/>
  </g>
  <g id="Thin-S" transform="matrix(1 0 0 1 828.923 696)">
   <path d="M2.15805-7.58934C1.57105-7.58934 0.980048-7.81334 0.531048-8.26234C-0.364952-9.15834-0.364952-10.6123 0.531048-11.5143L24.247-35.2303L0.531048-58.9453C-0.364952-59.8423-0.364952-61.3013 0.531048-62.1983C1.42805-63.0943 2.88205-63.0943 3.78405-62.1983L53.95-12.0313C54.847-11.1353 54.847-9.68134 53.95-8.77934C53.054-7.87734 51.6-7.88234 50.698-8.77934L27.499-31.9773L3.78405-8.26234C3.33605-7.81334 2.74905-7.58934 2.15805-7.58934ZM33.188-38.6203C32.602-38.6203 32.01-38.8443 31.562-39.2923C30.666-40.1893 30.666-41.6433 31.562-42.5453L51.215-62.1983C52.111-63.0943 53.565-63.0943 54.467-62.1983C55.37-61.3013 55.364-59.8473 54.467-58.9453L34.815-39.2923C34.366-38.8443 33.78-38.6203 33.188-38.6203Z"/>
  </g>
  <g id="Ultralight-S" transform="matrix(1 0 0 1 532.212 696)">
   <path d="M2.15805-7.58934C1.57105-7.58934 0.980048-7.81334 0.531048-8.26234C-0.364952-9.15834-0.364952-10.6123 0.531048-11.5143L24.247-35.2303L0.531048-58.9453C-0.364952-59.8423-0.364952-61.3013 0.531048-62.1983C1.42805-63.0943 2.88205-63.0943 3.78405-62.1983L53.95-12.0313C54.847-11.1353 54.847-9.68134 53.95-8.77934C53.054-7.87734 51.6-7.88234 50.698-8.77934L27.499-31.9773L3.78405-8.26234C3.33605-7.81334 2.74905-7.58934 2.15805-7.58934ZM33.188-38.6203C32.602-38.6203 32.01-38.8443 31.562-39.2923C30.666-40.1893 30.666-41.6433 31.562-42.5453L51.215-62.1983C52.111-63.0943 53.565-63.0943 54.467-62.1983C55.37-61.3013 55.364-59.8473 54.467-58.9453L34.815-39.2923C34.366-38.8443 33.78-38.6203 33.188-38.6203Z"/>
  </g>
 </g>
</svg>
