<?xml version="1.0" encoding="utf-8"?>
<!-- Generator: Adobe Illustrator 25.2.1, SVG Export Plug-In . SVG Version: 6.00 Build 0)  -->
<svg version="1.1" id="Layer_1" xmlns="http://www.w3.org/2000/svg" xmlns:xlink="http://www.w3.org/1999/xlink" x="0px" y="0px"
	 viewBox="0 0 3300 2200" style="enable-background:new 0 0 3300 2200;" xml:space="preserve">
<style type="text/css">
	.st0{fill:#FFFFFF;}
	.st1{fill:none;stroke:#000000;stroke-width:0.5;}
	.st2{font-family:'Arial-BoldMT';}
	.st3{font-size:12px;}
	.st4{font-family:'ArialMT';}
	.st5{fill:none;stroke:#00AEEF;stroke-width:0.5;}
	.st6{fill:#27AAE1;}
	.st7{fill:none;stroke:#27AAE1;stroke-width:0.5;}
</style>
<g id="Notes">
	<rect id="artboard" x="-0.5" y="1.8" class="st0" width="3300" height="2200"/>
	<line class="st1" x1="262.5" y1="293.8" x2="3035.5" y2="293.8"/>
	<text transform="matrix(1 0 0 1 262.5079 323.8044)" class="st2 st3">Weight/Scale Variations</text>
	<text transform="matrix(1 0 0 1 535.5441 323.8044)" class="st4 st3">Ultralight</text>
	<text transform="matrix(1 0 0 1 844.258 323.8044)" class="st4 st3">Thin</text>
	<text transform="matrix(1 0 0 1 1139.6272 323.8044)" class="st4 st3">Light</text>
	<text transform="matrix(1 0 0 1 1428.3362 323.8044)" class="st4 st3">Regular</text>
	<text transform="matrix(1 0 0 1 1724.728 323.8044)" class="st4 st3">Medium</text>
	<text transform="matrix(1 0 0 1 2017.7642 323.8044)" class="st4 st3">Semibold</text>
	<text transform="matrix(1 0 0 1 2327.479 323.8044)" class="st4 st3">Bold</text>
	<text transform="matrix(1 0 0 1 2619.1909 323.8044)" class="st4 st3">Heavy</text>
	<text transform="matrix(1 0 0 1 2918.2358 323.8044)" class="st4 st3">Black</text>
	<line class="st1" x1="262.5" y1="1904.8" x2="3035.5" y2="1904.8"/>
	<g transform="matrix(1 0 0 1 263 1933)">
		<path d="M8.8,2.6c4.3,0,7.9-3.6,7.9-7.9s-3.6-7.9-7.9-7.9S0.9-9.6,0.9-5.3C0.9-0.9,4.5,2.6,8.8,2.6z M8.8,1.2
			c-3.5,0-6.4-2.8-6.4-6.4s2.8-6.4,6.4-6.4s6.4,2.8,6.4,6.4C15.2-1.7,12.3,1.2,8.8,1.2z M5.9-4.5H8v2.1C8-2,8.3-1.7,8.7-1.7
			S9.4-2,9.4-2.4v-2.1h2.1c0.4,0,0.7-0.3,0.7-0.7C12.3-5.7,12-6,11.6-6H9.5v-2.1c0-0.4-0.3-0.8-0.7-0.8C8.3-8.8,8-8.5,8-8.1V-6H5.9
			C5.5-6,5.2-5.7,5.2-5.2C5.2-4.8,5.5-4.5,5.9-4.5z"/>
	</g>
	<g transform="matrix(1 0 0 1 281.506 1933)">
		<path d="M11.2,4.7c5.4,0,10-4.5,10-10c0-5.4-4.5-10-10-10c-5.4,0-10,4.5-10,10C1.3,0.2,5.8,4.7,11.2,4.7z M11.2,3.1
			c-4.6,0-8.3-3.7-8.3-8.3s3.7-8.3,8.3-8.3s8.3,3.7,8.3,8.3S15.8,3.1,11.2,3.1z M7.5-4.4h2.9v2.9c0,0.5,0.3,0.8,0.8,0.8S12-1,12-1.5
			v-2.9h2.9c0.5,0,0.8-0.3,0.8-0.8S15.4-6,14.9-6H12v-3c0-0.5-0.3-0.8-0.8-0.8S10.4-9.5,10.4-9v2.9H7.5C7-6.1,6.7-5.7,6.7-5.2
			C6.7-4.8,7-4.4,7.5-4.4z"/>
	</g>
	<g transform="matrix(1 0 0 1 304.924 1933)">
		<path d="M14.5,7.5c7,0,12.7-5.8,12.7-12.7c0-7-5.8-12.7-12.7-12.7c-7,0-12.7,5.8-12.7,12.7C1.8,1.7,7.5,7.5,14.5,7.5z M14.5,5.7
			c-6,0-10.9-4.9-10.9-10.9s4.8-10.9,10.9-10.9c6,0,10.9,4.9,10.9,10.9S20.5,5.7,14.5,5.7z M9.6-4.3h4v4c0,0.5,0.4,0.9,0.9,0.9
			s0.9-0.4,0.9-0.9v-4h4c0.5,0,0.9-0.4,0.9-0.9s-0.4-0.9-0.9-0.9h-4v-4c0-0.6-0.4-0.9-0.9-0.9s-0.9,0.4-0.9,0.9v4h-4
			c-0.6,0-1,0.3-1,0.9C8.6-4.7,9-4.3,9.6-4.3z"/>
	</g>
	<text transform="matrix(1 0 0 1 262.5079 1954.8044)" class="st2 st3">Design Variations</text>
	<text transform="matrix(1 0 0 1 262.5079 1972.8044)" class="st4 st3">Symbols are supported in up to nine weights and three scales.</text>
	<text transform="matrix(1 0 0 1 262.5079 1990.8044)" class="st4 st3">For optimal layout with text and other symbols, vertically align</text>
	<text transform="matrix(1 0 0 1 262.5079 2008.8044)" class="st4 st3">symbols with the adjacent text.</text>
	<line class="st5" x1="775.5" y1="1920.8" x2="775.5" y2="1934.8"/>
	<g transform="matrix(1 0 0 1 776 1933)">
		<path d="M2.8,1.9c0.5,0,0.8-0.2,1-0.7L5-2.3h5.8l1.3,3.5c0.2,0.5,0.4,0.7,0.9,0.7s0.8-0.3,0.8-0.8c0-0.2,0-0.3-0.1-0.5L9.2-11.6
			C9-12.2,8.6-12.5,8-12.5s-1,0.3-1.2,0.9L2.1,0.6C2,0.8,2,1,2,1.1C2,1.6,2.3,1.9,2.8,1.9z M5.5-3.7l2.4-6.6l0,0l2.4,6.6
			C10.3-3.7,5.5-3.7,5.5-3.7z"/>
	</g>
	<line class="st5" x1="792.3" y1="1920.8" x2="792.3" y2="1934.8"/>
	<text transform="matrix(1 0 0 1 775.5079 1954.8044)" class="st2 st3">Margins</text>
	<text transform="matrix(1 0 0 1 775.5079 1972.8044)" class="st4 st3">Leading and trailing margins on the left and right side of each symbol</text>
	<text transform="matrix(1 0 0 1 775.5079 1990.8044)" class="st4 st3">can be adjusted by modifying the x-location of the margin guidelines.</text>
	<text transform="matrix(1 0 0 1 775.5079 2008.8044)" class="st4 st3">Modifications are automatically applied proportionally to all</text>
	<text transform="matrix(1 0 0 1 775.5079 2026.8044)" class="st4 st3">scales and weights.</text>
	<g transform="matrix(1 0 0 1 1289 1933)">
		<path d="M2.3,3.7L4,5.4c0.9,0.9,1.8,0.8,2.8-0.2L17-6c0.3,0,0.5,0,0.8,0l1.1-0.2l0.7,0.7v0.6c0,0.5,0.1,0.9,0.6,1.4L21-2.8
			c0.5,0.5,1.1,0.5,1.6,0l2.9-2.9c0.5-0.5,0.4-1.1,0-1.5L24.7-8c-0.5-0.5-0.8-0.6-1.3-0.6h-0.6L22-9.3l0.2-1.1c0.1-0.6,0-1-0.6-1.6
			l-2.2-2.2c-3.3-3.3-7.8-3.2-10.7-0.4c-0.4,0.4-0.4,1-0.2,1.4s0.7,0.6,1.3,0.4c1.5-0.3,3-0.4,4.4,0.5l-0.6,1.5
			c-0.2,0.5-0.2,0.9-0.1,1.2L2.6,0.9C1.6,1.8,1.5,2.8,2.3,3.7z M10.3-14.2c2.4-1.8,5.7-1.5,7.9,0.8l2.4,2.4c0.2,0.2,0.3,0.4,0.2,0.8
			l-0.3,1.5L22-7.3l1-0.1c0.3,0,0.3,0,0.5,0.2l0.6,0.6l-2.4,2.4l-0.6-0.6c-0.2-0.2-0.2-0.3-0.2-0.5l0.1-1l-1.5-1.5L18-7.5
			c-0.3,0.1-0.5,0-0.7-0.2l-2-2c-0.3-0.2-0.3-0.4-0.1-0.8l0.9-2.1c-1.6-1.5-3.6-2.1-5.6-1.5C10.2-13.9,10.1-14,10.3-14.2z M4.8,4.1
			L3.6,2.9c-0.5-0.5-0.4-0.8,0-1.2L14.5-8.4L16-6.9L6,4.1C5.6,4.5,5.3,4.6,4.8,4.1z"/>
	</g>
	<text transform="matrix(1 0 0 1 1288.5079 1954.8044)" class="st2 st3">Exporting</text>
	<text transform="matrix(1 0 0 1 1288.5079 1972.8044)" class="st4 st3">Symbols should be outlined when exporting to ensure the</text>
	<text transform="matrix(1 0 0 1 1288.5079 1990.8044)" class="st4 st3">design is preserved when submitting to Xcode.</text>
	<text id="template-version" transform="matrix(1 0 0 1 2958.3574 1934.8044)" class="st4 st3">Template v.2.0</text>
	<text transform="matrix(1 0 0 1 2878.084 1952.8044)" class="st4 st3">Requires Xcode 12 or greater</text>
	<text transform="matrix(1 0 0 1 2865.416 1970.8044)" class="st4 st3">Generated from square.grid.3x3</text>
	<text transform="matrix(1 0 0 1 2921.4316 1988.8044)" class="st4 st3">Typeset at 100 points</text>
	<text transform="matrix(1 0 0 1 262.5079 727.8044)" class="st4 st3">Small</text>
	<text transform="matrix(1 0 0 1 262.5079 1157.8044)" class="st4 st3">Medium</text>
	<text transform="matrix(1 0 0 1 262.5079 1587.8044)" class="st4 st3">Large</text>
</g>
<g id="Guides">
	<g id="H-reference" transform="matrix(1 0 0 1 339 696)">
		<path class="st6" d="M1,0h2.7L13-24.5h32.8L55.1,0h2.6L30.6-70.5h-2.5L1,0z M29.3-67.1L29.3-67.1l15.5,40.4h-31L29.3-67.1z"/>
	</g>
	<line id="Baseline-S" class="st7" x1="263" y1="696" x2="3036" y2="696"/>
	<line id="Capline-S" class="st7" x1="263" y1="625.5" x2="3036" y2="625.5"/>
	<g id="H-reference_1_" transform="matrix(1 0 0 1 339 1126)">
		<path class="st6" d="M1,0h2.7L13-24.5h32.8L55.1,0h2.6L30.6-70.5h-2.5L1,0z M29.3-67.1L29.3-67.1l15.5,40.4h-31L29.3-67.1z"/>
	</g>
	<line id="Baseline-M" class="st7" x1="263" y1="1126" x2="3036" y2="1126"/>
	<line id="Capline-M" class="st7" x1="263" y1="1055.5" x2="3036" y2="1055.5"/>
	<g id="H-reference_2_" transform="matrix(1 0 0 1 339 1556)">
		<path class="st6" d="M1,0h2.7L13-24.5h32.8L55.1,0h2.6L30.6-70.5h-2.5L1,0z M29.3-67.1L29.3-67.1l15.5,40.4h-31L29.3-67.1z"/>
	</g>
	<line id="Baseline-L" class="st7" x1="263" y1="1556" x2="3036" y2="1556"/>
	<line id="Capline-L" class="st7" x1="263" y1="1485.5" x2="3036" y2="1485.5"/>
	<line id="left-margin" class="st5" x1="1389.5" y1="1030.8" x2="1389.5" y2="1150.1"/>
	<line id="right-margin" class="st5" x1="1510.2" y1="1030.8" x2="1510.2" y2="1150.1"/>
</g>
<g id="Black-L_1_">
	<g id="Black-L" transform="matrix(1 0 0 1 2845.46 1556)">
		<path d="M66.4,35.8c-28.7,0-52-23.3-52-52s23.3-52,52-52s52,23.3,52,52S95.1,35.8,66.4,35.8z M66.4-53.8
			c-20.7,0-37.6,16.9-37.6,37.6s16.9,37.6,37.6,37.6S104,4.5,104-16.2S87.1-53.8,66.4-53.8z"/>
		<path d="M129-43.7c-17,0-30.8-13.8-30.8-30.8s13.8-30.8,30.8-30.8s30.8,13.8,30.8,30.8S146-43.7,129-43.7z M129-90.9
			c-9,0-16.4,7.4-16.4,16.4S120-58.1,129-58.1s16.4-7.4,16.4-16.4S138-90.9,129-90.9z"/>
	</g>
</g>
<g id="Heavy-L" transform="matrix(1 0 0 1 2551.14 1556)">
	<g id="Heavy-L_1_" transform="matrix(1 0 0 1 1092.88 1126)">
		<path d="M-1027-1093.5c-2.6,0-5.3-0.2-8-0.6c-13.1-2.1-24.6-9.2-32.4-20s-10.9-24-8.8-37.1c4.4-27.1,30-45.6,57.1-41.2
			s45.6,30,41.2,57.1C-981.9-1110.9-1003-1093.5-1027-1093.5z M-1027.1-1180.1c-17.7,0-33.4,12.9-36.3,30.9
			c-1.6,9.7,0.7,19.4,6.5,27.4s14.3,13.2,24,14.8c20,3.2,39-10.4,42.2-30.4c3.3-20-10.4-39-30.4-42.2
			C-1023.1-1180-1025.1-1180.1-1027.1-1180.1z"/>
		<path d="M-966.5-1170.5c-16.1,0-29.3-13.1-29.3-29.3s13.1-29.3,29.3-29.3c16.1,0,29.3,13.1,29.3,29.3S-950.4-1170.5-966.5-1170.5z
			 M-966.5-1216.1c-9,0-16.3,7.3-16.3,16.3s7.3,16.3,16.3,16.3s16.3-7.3,16.3-16.3S-957.5-1216.1-966.5-1216.1z"/>
	</g>
</g>
<g id="Bold-L" transform="matrix(1 0 0 1 2257.12 1556)">
	<g id="Bold-L_1_" transform="matrix(1 0 0 1 1092.88 1126)">
		<path d="M-1029-1095.9c-26.3,0-47.8-21.4-47.8-47.8s21.4-47.8,47.8-47.8s47.8,21.4,47.8,47.8S-1002.7-1095.9-1029-1095.9z
			 M-1029-1179.9c-20,0-36.2,16.3-36.2,36.2s16.3,36.2,36.2,36.2s36.2-16.3,36.2-36.2S-1009-1179.9-1029-1179.9z"/>
		<path d="M-970.2-1170.5c-15.4,0-28-12.5-28-28s12.5-28,28-28s28,12.5,28,28S-954.8-1170.5-970.2-1170.5z M-970.2-1214.9
			c-9.1,0-16.4,7.4-16.4,16.4s7.4,16.4,16.4,16.4s16.4-7.4,16.4-16.4S-961.1-1214.9-970.2-1214.9z"/>
	</g>
</g>
<g id="Semibold-L" transform="matrix(1 0 0 1 1962.26 1556)">
	<g id="Semibold-L_1_" transform="matrix(1 0 0 1 1092.88 1126)">
		<path d="M-1030.9-1097.8c-2.5,0-5-0.2-7.5-0.6c-25.2-4.1-42.4-27.9-38.3-53.2l0,0c4.1-25.2,27.9-42.4,53.2-38.3
			c25.2,4.1,42.4,27.9,38.3,53.2c-2,12.2-8.6,22.9-18.6,30.2C-1011.9-1100.8-1021.3-1097.8-1030.9-1097.8z M-1066.8-1149.9
			c-3.2,19.7,10.2,38.4,30,41.6c9.6,1.5,19.2-0.7,27-6.4c7.9-5.7,13-14,14.6-23.6c3.2-19.7-10.2-38.4-30-41.6
			C-1045-1183.1-1063.6-1169.7-1066.8-1149.9L-1066.8-1149.9z"/>
		<path d="M-973.4-1171.1c-14.8,0-26.8-12-26.8-26.8s12-26.8,26.8-26.8s26.8,12,26.8,26.8S-958.6-1171.1-973.4-1171.1z
			 M-973.4-1214.7c-9.2,0-16.8,7.5-16.8,16.8c0,9.2,7.5,16.8,16.8,16.8s16.8-7.5,16.8-16.8C-956.6-1207.1-964.2-1214.7-973.4-1214.7
			z"/>
	</g>
</g>
<g id="Medium-L" transform="matrix(1 0 0 1 1666.94 1556)">
	<g id="Medium-L_1_" transform="matrix(1 0 0 1 1092.88 1126)">
		<path d="M-1032.4-1099.9c-24.7,0-44.7-20.1-44.7-44.7c0-24.7,20.1-44.7,44.7-44.7s44.7,20.1,44.7,44.7
			C-987.7-1119.9-1007.7-1099.9-1032.4-1099.9z M-1032.4-1180.7c-19.9,0-36.1,16.2-36.1,36.1s16.2,36.1,36.1,36.1
			s36.1-16.2,36.1-36.1S-1012.5-1180.7-1032.4-1180.7z"/>
		<path d="M-975.9-1171.7c-14.1,0-25.6-11.5-25.6-25.6s11.5-25.6,25.6-25.6s25.6,11.5,25.6,25.6S-961.8-1171.7-975.9-1171.7z
			 M-975.9-1214.3c-9.4,0-17,7.6-17,17s7.6,17,17,17s17-7.6,17-17S-966.5-1214.3-975.9-1214.3z"/>
	</g>
</g>
<g id="Regular-L_1_">
	<g id="Regular-L">
		<path d="M1431.4,1580.2c-23.9,0-43.3-19.4-43.3-43.3s19.4-43.3,43.3-43.3s43.3,19.4,43.3,43.3S1455.3,1580.2,1431.4,1580.2z
			 M1431.4,1500.8c-19.9,0-36.1,16.2-36.1,36.1s16.2,36.1,36.1,36.1s36.1-16.2,36.1-36.1S1451.3,1500.8,1431.4,1500.8z"/>
		<path d="M1486.9,1509.9c-13.6,0-24.6-11-24.6-24.6s11-24.6,24.6-24.6s24.6,11,24.6,24.6S1500.4,1509.9,1486.9,1509.9z
			 M1486.9,1467.9c-9.6,0-17.4,7.8-17.4,17.4s7.8,17.4,17.4,17.4s17.4-7.8,17.4-17.4S1496.5,1467.9,1486.9,1467.9z"/>
	</g>
</g>
<g id="Light-L_1_">
	<g id="Light-L" transform="matrix(1 0 0 1 1075.45 1556)">
		<path d="M59.2,24.1c-23.5,0-42.7-19.2-42.7-42.7s19.2-42.7,42.7-42.7s42.7,19.2,42.7,42.7S82.7,24.1,59.2,24.1z M59.2-55.9
			c-20.6,0-37.3,16.7-37.3,37.3s16.7,37.3,37.3,37.3S96.5,2,96.5-18.6S79.8-55.9,59.2-55.9z"/>
		<path d="M115.1-46.9c-13.1,0-23.8-10.7-23.8-23.8s10.7-23.8,23.8-23.8s23.8,10.7,23.8,23.8C138.9-57.6,128.2-46.9,115.1-46.9z
			 M115.1-89.1c-10.1,0-18.4,8.3-18.4,18.4s8.3,18.4,18.4,18.4s18.4-8.3,18.4-18.4S125.2-89.1,115.1-89.1z"/>
	</g>
</g>
<g id="Thin-L_1_">
	<g id="Thin-L" transform="matrix(1 0 0 1 778.883 1556)">
		<path d="M58.9,24.9c-23.4,0-42.4-19-42.4-42.4s19-42.4,42.4-42.4s42.4,19,42.4,42.4S82.3,24.9,58.9,24.9z M58.9-56.3
			c-21.4,0-38.8,17.4-38.8,38.8s17.4,38.8,38.8,38.8S97.7,3.9,97.7-17.5S80.3-56.3,58.9-56.3z"/>
		<path d="M115.6-47.1c-12.8,0-23.2-10.4-23.2-23.2s10.4-23.2,23.2-23.2s23.2,10.4,23.2,23.2C138.8-57.5,128.4-47.1,115.6-47.1z
			 M115.6-89.9c-10.8,0-19.6,8.8-19.6,19.6s8.8,19.6,19.6,19.6s19.6-8.8,19.6-19.6S126.4-89.9,115.6-89.9z"/>
	</g>
</g>
<g id="Ultralight-L_1_">
	<g id="Ultralight-L" transform="matrix(1 0 0 1 482.245 1556)">
		<path d="M60,23C37.3,23,18.8,4.5,18.8-18.2S37.3-59.4,60-59.4s41.2,18.5,41.2,41.2S82.7,23,60,23z M60-57.6
			c-21.7,0-39.4,17.7-39.4,39.4S38.3,21.2,60,21.2S99.4,3.5,99.4-18.2S81.7-57.6,60-57.6z"/>
		<path d="M116.3-48.5c-12.2,0-22.1-9.9-22.1-22.1s9.9-22.1,22.1-22.1s22.1,9.9,22.1,22.1C138.4-58.4,128.5-48.5,116.3-48.5z
			 M116.3-90.9c-11.2,0-20.3,9.1-20.3,20.3s9.1,20.3,20.3,20.3s20.3-9.1,20.3-20.3S127.5-90.9,116.3-90.9z"/>
	</g>
</g>
<g id="Black-M_1_">
	<g id="Black-M" transform="matrix(1 0 0 1 2862.06 1126)">
		<path d="M53.9,21.6c-23.2,0-42.1-18.9-42.1-42.1s18.9-42.1,42.1-42.1S96-43.7,96-20.5S77.1,21.6,53.9,21.6z M53.9-50
			c-16.3,0-29.5,13.2-29.5,29.5C24.4-4.2,37.6,9,53.9,9S83.4-4.2,83.4-20.5S70.2-50,53.9-50z"/>
		<path d="M104-42c-13.9,0-25.2-11.3-25.2-25.2S90.1-92.4,104-92.4s25.2,11.3,25.2,25.2S117.9-42,104-42z M104-79.8
			c-6.9,0-12.6,5.7-12.6,12.6s5.7,12.6,12.6,12.6s12.6-5.7,12.6-12.6S110.9-79.8,104-79.8z"/>
	</g>
</g>
<g id="Heavy-M">
	<g id="Heavy-M_1_">
		<path d="M2669.5,1085.1c-13.5,0-24.6-11-24.6-24.6s11-24.6,24.6-24.6s24.6,11,24.6,24.6S2683.1,1085.1,2669.5,1085.1z
			 M2669.5,1047.5c-7.2,0-13,5.9-13,13s5.8,13,13,13s13-5.9,13-13S2676.7,1047.5,2669.5,1047.5z"/>
		<path d="M2619.5,1148.6c-6.6,0-13.2-1.6-19.2-4.8c-9.8-5.1-17-13.8-20.3-24.4s-2.3-21.8,2.8-31.6l0,0c5.1-9.8,13.8-17,24.4-20.3
			c10.6-3.3,21.8-2.3,31.6,2.9c9.8,5.1,17,13.8,20.3,24.4s2.3,21.8-2.8,31.6c-5.1,9.8-13.8,17-24.4,20.3
			C2627.9,1148,2623.7,1148.6,2619.5,1148.6z M2619.6,1077.1c-3,0-6,0.5-9,1.4c-7.6,2.4-13.9,7.6-17.6,14.7l0,0
			c-3.7,7.1-4.4,15.2-2.1,22.8s7.6,13.9,14.7,17.6c7.1,3.7,15.2,4.4,22.8,2.1c7.6-2.4,13.9-7.6,17.6-14.7c7.7-14.6,2-32.8-12.6-40.4
			C2629.1,1078.3,2624.4,1077.1,2619.6,1077.1z"/>
	</g>
</g>
<g id="Bold-M_1_">
	<g id="Bold-M" transform="matrix(1 0 0 1 2274.16 1126)">
		<path d="M50.2,17.5C29,17.5,11.7,0.2,11.7-21S29-59.5,50.2-59.5S88.7-42.2,88.7-21S71.4,17.5,50.2,17.5z M50.2-49.1
			c-15.5,0-28.1,12.6-28.1,28.1S34.7,7.1,50.2,7.1S78.3-5.5,78.3-21S65.7-49.1,50.2-49.1z"/>
		<path d="M96.8-41.7C84.2-41.7,74-51.9,74-64.5s10.2-22.8,22.8-22.8s22.8,10.2,22.8,22.8S109.4-41.7,96.8-41.7z M96.8-76.9
			c-6.8,0-12.4,5.6-12.4,12.4S90-52.1,96.8-52.1s12.4-5.6,12.4-12.4S103.6-76.9,96.8-76.9z"/>
	</g>
</g>
<g id="Semibold-M_1_">
	<g id="Semibold-M" transform="matrix(1 0 0 1 1979.42 1126)">
		<path d="M49.1,15.4c-20.4,0-37-16.6-37-37s16.6-37,37-37s37,16.6,37,37S69.5,15.4,49.1,15.4z M49.1-49.2
			c-15.2,0-27.6,12.4-27.6,27.6C21.5-6.4,33.9,6,49.1,6S76.7-6.4,76.7-21.6S64.3-49.2,49.1-49.2z"/>
		<path d="M94.2-42c-12,0-21.7-9.7-21.7-21.7s9.7-21.7,21.7-21.7s21.7,9.7,21.7,21.7S106.2-42,94.2-42z M94.2-76
			c-6.8,0-12.3,5.5-12.3,12.3s5.5,12.3,12.3,12.3s12.3-5.5,12.3-12.3S101-76,94.2-76z"/>
	</g>
</g>
<g id="Medium-M_1_">
	<g id="Medium-M" transform="matrix(1 0 0 1 1684.25 1126)">
		<path d="M47.4,13.9c-19.7,0-35.6-16-35.6-35.6c0-19.7,16-35.6,35.6-35.6S83-41.4,83-21.7S67.1,13.9,47.4,13.9z M47.4-49.1
			C32.3-49.1,20-36.8,20-21.7S32.3,5.7,47.4,5.7S74.8-6.6,74.8-21.7S62.5-49.1,47.4-49.1z"/>
		<path d="M91.5-42.1c-11.4,0-20.7-9.3-20.7-20.7s9.3-20.7,20.7-20.7s20.7,9.3,20.7,20.7S102.9-42.1,91.5-42.1z M91.5-75.3
			c-6.9,0-12.5,5.6-12.5,12.5s5.6,12.5,12.5,12.5S104-55.9,104-62.8S98.4-75.3,91.5-75.3z"/>
	</g>
</g>
<g id="Regular-M_1_">
	<g id="Regular-M">
		<path d="M1435.1,1137.3c-18.7,0-33.8-15.2-33.8-33.8c0-18.7,15.2-33.8,33.8-33.8c18.7,0,33.8,15.2,33.8,33.8
			C1469,1122.1,1453.8,1137.3,1435.1,1137.3z M1435.1,1076.1c-15.1,0-27.4,12.3-27.4,27.4s12.3,27.4,27.4,27.4s27.4-12.3,27.4-27.4
			C1462.5,1088.3,1450.2,1076.1,1435.1,1076.1z"/>
		<path d="M1477.9,1083.1c-10.7,0-19.4-8.7-19.4-19.4s8.7-19.4,19.4-19.4s19.4,8.7,19.4,19.4S1488.6,1083.1,1477.9,1083.1z
			 M1477.9,1050.7c-7.1,0-13,5.8-13,13c0,7.1,5.8,13,13,13c7.1,0,13-5.8,13-13C1490.8,1056.5,1485,1050.7,1477.9,1050.7z"/>
	</g>
</g>
<g id="Light-M_1_">
	<g id="Light-M" transform="matrix(1 0 0 1 1092.88 1126)">
		<path d="M46.4,11C27.9,11,12.8-4.1,12.8-22.6s15.1-33.6,33.6-33.6C64.9-56.2,80-41.1,80-22.6S64.9,11,46.4,11z M46.4-50.8
			c-15.5,0-28.2,12.7-28.2,28.2S30.9,5.6,46.4,5.6S74.6-7.1,74.6-22.6S61.9-50.8,46.4-50.8z"/>
		<path d="M89.6-43.9c-10.5,0-19-8.5-19-19s8.5-19,19-19s19,8.5,19,19S100.1-43.9,89.6-43.9z M89.6-76.5c-7.5,0-13.6,6.1-13.6,13.6
			s6.1,13.6,13.6,13.6s13.6-6.1,13.6-13.6S97.1-76.5,89.6-76.5z"/>
	</g>
</g>
<g id="Thin-M_1_">
	<g id="Thin-M" transform="matrix(1 0 0 1 796.29 1126)">
		<path d="M45.7,10.2C27.7,10.2,13-4.5,13-22.5s14.7-32.7,32.7-32.7s32.7,14.7,32.7,32.7S63.7,10.2,45.7,10.2z M45.7-51.6
			c-16,0-29.1,13.1-29.1,29.1S29.7,6.6,45.7,6.6S74.8-6.5,74.8-22.5S61.7-51.6,45.7-51.6z"/>
		<path d="M88.9-44.7c-10,0-18.1-8.1-18.1-18.1s8.1-18.1,18.1-18.1S107-72.8,107-62.8S98.9-44.7,88.9-44.7z M88.9-77.3
			c-8,0-14.5,6.5-14.5,14.5s6.5,14.5,14.5,14.5s14.5-6.5,14.5-14.5S96.9-77.3,88.9-77.3z"/>
	</g>
</g>
<g id="Ultralight-M_1_">
	<g id="Ultralight-M" transform="matrix(1 0 0 1 499.653 1126)">
		<path d="M45.6,10.3c-17.8,0-32.2-14.4-32.2-32.2s14.4-32.2,32.2-32.2s32.2,14.4,32.2,32.2S63.4,10.3,45.6,10.3z M45.6-52.3
			c-16.8,0-30.4,13.6-30.4,30.4S28.8,8.5,45.6,8.5S76-5.1,76-21.9S62.4-52.3,45.6-52.3z"/>
		<path d="M89.3-45.2c-9.6,0-17.4-7.8-17.4-17.4S79.7-80,89.3-80s17.4,7.8,17.4,17.4S98.9-45.2,89.3-45.2z M89.3-78.2
			c-8.6,0-15.6,7-15.6,15.6S80.7-47,89.3-47s15.6-7,15.6-15.6S97.9-78.2,89.3-78.2z"/>
	</g>
</g>
<g id="Black-S_1_">
	<g id="Black-S" transform="matrix(1 0 0 1 2877.71 696)">
		<path d="M42.8,9.6C24.7,9.6,9.9-5.2,9.9-23.3s14.8-32.9,32.9-32.9s32.9,14.8,32.9,32.9S60.9,9.6,42.8,9.6z M42.8-47.2
			c-13.2,0-23.9,10.7-23.9,23.9S29.6,0.6,42.8,0.6s23.9-10.7,23.9-23.9S56-47.2,42.8-47.2z"/>
		<path d="M82.4-40.8C71.7-40.8,63-49.5,63-60.2s8.7-19.4,19.4-19.4s19.4,8.7,19.4,19.4S93.1-40.8,82.4-40.8z M82.4-70.6
			c-5.7,0-10.4,4.7-10.4,10.4s4.7,10.4,10.4,10.4s10.4-4.7,10.4-10.4S88.1-70.6,82.4-70.6z"/>
	</g>
</g>
<g id="Heavy-S" transform="matrix(1 0 0 1 2582.98 696)">
	<g id="Heavy-S_1_">
		<path d="M41,7.6C23.6,7.6,9.5-6.6,9.5-23.9S23.6-55.4,41-55.4s31.5,14.1,31.5,31.5S58.4,7.6,41,7.6z M41-47.2
			c-12.8,0-23.2,10.4-23.2,23.2C17.8-11.1,28.2-0.7,41-0.7s23.2-10.4,23.2-23.2S53.8-47.2,41-47.2z"/>
		<path d="M79.2-41C69-41,60.6-49.3,60.6-59.6c0-10.2,8.3-18.6,18.6-18.6s18.6,8.3,18.6,18.6C97.7-49.3,89.4-41,79.2-41z M79.2-69.8
			c-5.7,0-10.3,4.6-10.3,10.3s4.6,10.3,10.3,10.3s10.3-4.6,10.3-10.3S84.8-69.8,79.2-69.8z"/>
	</g>
</g>
<g id="Bold-S" transform="matrix(1 0 0 1 2288.46 696)">
	<g id="Bold-S_1_">
		<path d="M39.4,5.6c-16.5,0-30-13.5-30-30.1s13.5-30.1,30.1-30.1s30.1,13.5,30.1,30.1C69.5-7.9,56,5.6,39.4,5.6z M39.4-47.1
			C27-47.1,16.9-37,16.9-24.5C16.9-12.1,27-2,39.4-2S62-12.1,62-24.5C62-37,51.9-47.1,39.4-47.1z"/>
		<path d="M76.1-41.1c-9.7,0-17.6-7.9-17.6-17.6s7.9-17.6,17.6-17.6s17.6,7.9,17.6,17.6S85.9-41.1,76.1-41.1z M76.1-68.8
			c-5.6,0-10.1,4.5-10.1,10.1s4.5,10.1,10.1,10.1s10.1-4.5,10.1-10.1S81.7-68.8,76.1-68.8z"/>
	</g>
</g>
<g id="Semibold-S" transform="matrix(1 0 0 1 1993.29 696)">
	<g id="Semibold-S_1_">
		<path d="M38.3,3.9C22.4,3.9,9.5-9,9.5-25s12.9-28.9,28.9-28.9s28.8,13,28.8,28.9S54.2,3.9,38.3,3.9z M38.3-47
			c-12.1,0-22,9.9-22,22s9.9,22,22,22s22-9.9,22-22S50.5-47,38.3-47z"/>
		<path d="M73.8-41.2C64.5-41.2,57-48.8,57-58s7.5-16.8,16.8-16.8S90.6-67.3,90.6-58S83.1-41.2,73.8-41.2z M73.8-68
			c-5.5,0-10,4.5-10,10s4.5,10,10,10s10-4.5,10-10S79.3-68,73.8-68z"/>
	</g>
</g>
<g id="Medium-S_1_">
	<g id="Medium-S">
		<path d="M1735,699c-15.4,0-27.9-12.5-27.9-27.9s12.5-27.9,27.9-27.9s27.9,12.5,27.9,27.9C1763,686.4,1750.4,699,1735,699z
			 M1735,649.2c-12,0-21.8,9.8-21.8,21.8s9.8,21.8,21.8,21.8s21.8-9.8,21.8-21.8S1747.1,649.2,1735,649.2z"/>
		<path d="M1769.7,654.9c-8.9,0-16.2-7.2-16.2-16.2c0-8.9,7.2-16.2,16.2-16.2s16.2,7.2,16.2,16.2
			C1785.9,647.6,1778.6,654.9,1769.7,654.9z M1769.7,628.7c-5.5,0-10,4.5-10,10s4.5,10,10,10s10-4.5,10-10
			C1779.8,633.2,1775.3,628.7,1769.7,628.7z"/>
	</g>
</g>
<g id="Regular-S_1_">
	<g id="Regular-S" transform="matrix(1 0 0 1 1402.53 696)">
		<path d="M35.9,1.9c-14.9,0-27-12.1-27-27s12.1-27,27-27s27,12.1,27,27S50.8,1.9,35.9,1.9z M35.9-46.7C24-46.7,14.3-37,14.3-25.1
			S24-3.5,35.9-3.5s21.6-9.7,21.6-21.6S47.8-46.7,35.9-46.7z"/>
		<path d="M69.8-41.2c-8.5,0-15.5-7-15.5-15.5s7-15.5,15.5-15.5s15.5,7,15.5,15.5S78.3-41.2,69.8-41.2z M69.8-66.8
			c-5.6,0-10.1,4.5-10.1,10.1s4.5,10.1,10.1,10.1s10.1-4.5,10.1-10.1S75.4-66.8,69.8-66.8z"/>
	</g>
</g>
<g id="Light-S_1_">
	<g id="Light-S" transform="matrix(1 0 0 1 1105.89 696)">
		<path d="M35.7,1.3C21.3,1.3,9.5-10.5,9.5-24.9s11.7-26.2,26.2-26.2c14.4,0,26.2,11.7,26.2,26.2S50.1,1.3,35.7,1.3z M35.7-46.9
			c-12.2,0-22,9.9-22,22s9.9,22,22,22s22-9.9,22-22S47.9-46.9,35.7-46.9z"/>
		<path d="M69.4-41.5c-8.1,0-14.8-6.6-14.8-14.8s6.6-14.8,14.8-14.8s14.8,6.6,14.8,14.8S77.5-41.5,69.4-41.5z M69.4-66.9
			c-5.9,0-10.6,4.8-10.6,10.6c0,5.9,4.8,10.6,10.6,10.6S80-50.4,80-56.3S75.3-66.9,69.4-66.9z"/>
	</g>
</g>
<g id="Thin-S_1_">
	<g id="Thin-S" transform="matrix(1 0 0 1 809.279 696)">
		<path d="M36,0.5C21.9,0.5,10.4-11,10.4-25.1S21.9-50.7,36-50.7s25.6,11.5,25.6,25.6S50.1,0.5,36,0.5z M36-47.7
			c-12.5,0-22.6,10.1-22.6,22.6S23.5-2.5,36-2.5s22.6-10.1,22.6-22.6S48.5-47.7,36-47.7z"/>
		<path d="M69.7-42.3c-7.8,0-14.2-6.4-14.2-14.2s6.4-14.2,14.2-14.2s14.2,6.4,14.2,14.2S77.5-42.3,69.7-42.3z M69.7-67.7
			c-6.2,0-11.2,5-11.2,11.2s5,11.2,11.2,11.2s11.2-5,11.2-11.2S75.9-67.7,69.7-67.7z"/>
	</g>
</g>
<g id="Ultralight-S">
	<g id="Ultralight-S_1_">
		<path d="M582.5,652.9c-7.6,0-13.8-6.2-13.8-13.8s6.2-13.8,13.8-13.8s13.8,6.2,13.8,13.8S590.1,652.9,582.5,652.9z M582.5,627.1
			c-6.6,0-12,5.4-12,12s5.4,12,12,12s12-5.4,12-12S589.1,627.1,582.5,627.1z"/>
		<path d="M548.4,696.2c-14,0-25.3-11.3-25.3-25.3s11.3-25.3,25.3-25.3s25.3,11.3,25.3,25.3S562.4,696.2,548.4,696.2z M548.4,647.4
			c-13,0-23.5,10.5-23.5,23.5s10.5,23.5,23.5,23.5s23.5-10.5,23.5-23.5S561.4,647.4,548.4,647.4z"/>
	</g>
</g>
</svg>
