<?xml version="1.0" encoding="UTF-8"?>
<!--Generator: Apple Native CoreSVG 341-->
<!DOCTYPE svg
PUBLIC "-//W3C//DTD SVG 1.1//EN"
       "http://www.w3.org/Graphics/SVG/1.1/DTD/svg11.dtd">
<svg version="1.1" xmlns="http://www.w3.org/2000/svg" xmlns:xlink="http://www.w3.org/1999/xlink" viewBox="0 0 3300 2200">
 <!--glyph: "", point size: 100.0, font version: "20.0d10e1", template writer version: "138.0.0"-->
 <style>.SFSymbolsPreviewWireframe {fill:none;opacity:1.0;stroke:black;stroke-width:0.5}
</style>
 <g id="Notes">
  <rect height="2200" id="artboard" style="fill:white;opacity:1" width="3300" x="0" y="0"/>
  <line style="fill:none;stroke:black;opacity:1;stroke-width:0.5;" x1="263" x2="3036" y1="292" y2="292"/>
  <text style="stroke:none;fill:black;font-family:sans-serif;font-size:13;font-weight:bold;" transform="matrix(1 0 0 1 263 322)">Weight/Scale Variations</text>
  <text style="stroke:none;fill:black;font-family:sans-serif;font-size:13;text-anchor:middle;" transform="matrix(1 0 0 1 559.711 322)">Ultralight</text>
  <text style="stroke:none;fill:black;font-family:sans-serif;font-size:13;text-anchor:middle;" transform="matrix(1 0 0 1 856.422 322)">Thin</text>
  <text style="stroke:none;fill:black;font-family:sans-serif;font-size:13;text-anchor:middle;" transform="matrix(1 0 0 1 1153.13 322)">Light</text>
  <text style="stroke:none;fill:black;font-family:sans-serif;font-size:13;text-anchor:middle;" transform="matrix(1 0 0 1 1449.84 322)">Regular</text>
  <text style="stroke:none;fill:black;font-family:sans-serif;font-size:13;text-anchor:middle;" transform="matrix(1 0 0 1 1746.56 322)">Medium</text>
  <text style="stroke:none;fill:black;font-family:sans-serif;font-size:13;text-anchor:middle;" transform="matrix(1 0 0 1 2043.27 322)">Semibold</text>
  <text style="stroke:none;fill:black;font-family:sans-serif;font-size:13;text-anchor:middle;" transform="matrix(1 0 0 1 2339.98 322)">Bold</text>
  <text style="stroke:none;fill:black;font-family:sans-serif;font-size:13;text-anchor:middle;" transform="matrix(1 0 0 1 2636.69 322)">Heavy</text>
  <text style="stroke:none;fill:black;font-family:sans-serif;font-size:13;text-anchor:middle;" transform="matrix(1 0 0 1 2933.4 322)">Black</text>
  <line style="fill:none;stroke:black;opacity:1;stroke-width:0.5;" x1="263" x2="3036" y1="1903" y2="1903"/>
  <g transform="matrix(0.2 0 0 0.2 263 1933)">
   <path d="m46.2402 4.15039c21.7773 0 39.4531-17.627 39.4531-39.4043s-17.6758-39.4043-39.4531-39.4043c-21.7285 0-39.4043 17.627-39.4043 39.4043s17.6758 39.4043 39.4043 39.4043Zm0-7.42188c-17.6758 0-31.9336-14.3066-31.9336-31.9824s14.2578-31.9824 31.9336-31.9824 31.9824 14.3066 31.9824 31.9824-14.3066 31.9824-31.9824 31.9824Zm-17.9688-31.9824c0 2.14844 1.51367 3.61328 3.75977 3.61328h10.498v10.5957c0 2.19727 1.46484 3.71094 3.61328 3.71094 2.24609 0 3.71094-1.51367 3.71094-3.71094v-10.5957h10.5957c2.19727 0 3.71094-1.46484 3.71094-3.61328 0-2.19727-1.51367-3.71094-3.71094-3.71094h-10.5957v-10.5469c0-2.24609-1.46484-3.75977-3.71094-3.75977-2.14844 0-3.61328 1.51367-3.61328 3.75977v10.5469h-10.498c-2.24609 0-3.75977 1.51367-3.75977 3.71094Z"/>
  </g>
  <g transform="matrix(0.2 0 0 0.2 281.506 1933)">
   <path d="m58.5449 14.5508c27.4902 0 49.8047-22.3145 49.8047-49.8047s-22.3145-49.8047-49.8047-49.8047-49.8047 22.3145-49.8047 49.8047 22.3145 49.8047 49.8047 49.8047Zm0-8.30078c-22.9492 0-41.5039-18.5547-41.5039-41.5039s18.5547-41.5039 41.5039-41.5039 41.5039 18.5547 41.5039 41.5039-18.5547 41.5039-41.5039 41.5039Zm-22.6562-41.5039c0 2.39258 1.66016 4.00391 4.15039 4.00391h14.3555v14.4043c0 2.44141 1.66016 4.15039 4.05273 4.15039 2.44141 0 4.15039-1.66016 4.15039-4.15039v-14.4043h14.4043c2.44141 0 4.15039-1.61133 4.15039-4.00391 0-2.44141-1.70898-4.15039-4.15039-4.15039h-14.4043v-14.3555c0-2.49023-1.70898-4.19922-4.15039-4.19922-2.39258 0-4.05273 1.70898-4.05273 4.19922v14.3555h-14.3555c-2.49023 0-4.15039 1.70898-4.15039 4.15039Z"/>
  </g>
  <g transform="matrix(0.2 0 0 0.2 304.924 1933)">
   <path d="m74.8535 28.3203c35.1074 0 63.623-28.4668 63.623-63.5742s-28.5156-63.623-63.623-63.623-63.5742 28.5156-63.5742 63.623 28.4668 63.5742 63.5742 63.5742Zm0-9.08203c-30.127 0-54.4922-24.3652-54.4922-54.4922s24.3652-54.4922 54.4922-54.4922 54.4922 24.3652 54.4922 54.4922-24.3652 54.4922-54.4922 54.4922Zm-28.8574-54.4922c0 2.58789 1.85547 4.39453 4.58984 4.39453h19.7266v19.7754c0 2.68555 1.85547 4.58984 4.44336 4.58984 2.68555 0 4.54102-1.85547 4.54102-4.58984v-19.7754h19.7754c2.68555 0 4.58984-1.80664 4.58984-4.39453 0-2.73438-1.85547-4.58984-4.58984-4.58984h-19.7754v-19.7266c0-2.73438-1.85547-4.63867-4.54102-4.63867-2.58789 0-4.44336 1.9043-4.44336 4.63867v19.7266h-19.7266c-2.73438 0-4.58984 1.85547-4.58984 4.58984Z"/>
  </g>
  <text style="stroke:none;fill:black;font-family:sans-serif;font-size:13;font-weight:bold;" transform="matrix(1 0 0 1 263 1953)">Design Variations</text>
  <text style="stroke:none;fill:black;font-family:sans-serif;font-size:13;" transform="matrix(1 0 0 1 263 1971)">Symbols are supported in up to nine weights and three scales.</text>
  <text style="stroke:none;fill:black;font-family:sans-serif;font-size:13;" transform="matrix(1 0 0 1 263 1989)">For optimal layout with text and other symbols, vertically align</text>
  <text style="stroke:none;fill:black;font-family:sans-serif;font-size:13;" transform="matrix(1 0 0 1 263 2007)">symbols with the adjacent text.</text>
  <line style="fill:none;stroke:#00AEEF;stroke-width:0.5;opacity:1.0;" x1="776" x2="776" y1="1919" y2="1933"/>
  <g transform="matrix(0.2 0 0 0.2 776 1933)">
   <path d="m16.5527 0.78125c2.58789 0 3.85742-0.976562 4.78516-3.71094l6.29883-17.2363h28.8086l6.29883 17.2363c0.927734 2.73438 2.19727 3.71094 4.73633 3.71094 2.58789 0 4.24805-1.5625 4.24805-4.00391 0-0.830078-0.146484-1.61133-0.537109-2.63672l-22.9004-60.9863c-1.12305-2.97852-3.125-4.49219-6.25-4.49219-3.02734 0-5.07812 1.46484-6.15234 4.44336l-22.9004 61.084c-0.390625 1.02539-0.537109 1.80664-0.537109 2.63672 0 2.44141 1.5625 3.95508 4.10156 3.95508Zm13.4766-28.3691 11.8652-32.8613h0.244141l11.8652 32.8613Z"/>
  </g>
  <line style="fill:none;stroke:#00AEEF;stroke-width:0.5;opacity:1.0;" x1="792.836" x2="792.836" y1="1919" y2="1933"/>
  <text style="stroke:none;fill:black;font-family:sans-serif;font-size:13;font-weight:bold;" transform="matrix(1 0 0 1 776 1953)">Margins</text>
  <text style="stroke:none;fill:black;font-family:sans-serif;font-size:13;" transform="matrix(1 0 0 1 776 1971)">Leading and trailing margins on the left and right side of each symbol</text>
  <text style="stroke:none;fill:black;font-family:sans-serif;font-size:13;" transform="matrix(1 0 0 1 776 1989)">can be adjusted by modifying the x-location of the margin guidelines.</text>
  <text style="stroke:none;fill:black;font-family:sans-serif;font-size:13;" transform="matrix(1 0 0 1 776 2007)">Modifications are automatically applied proportionally to all</text>
  <text style="stroke:none;fill:black;font-family:sans-serif;font-size:13;" transform="matrix(1 0 0 1 776 2025)">scales and weights.</text>
  <g transform="matrix(0.2 0 0 0.2 1289 1933)">
   <path d="m14.209 9.32617 8.49609 8.54492c4.29688 4.3457 9.22852 4.05273 13.8672-1.07422l53.4668-58.9355-4.83398-4.88281-53.0762 58.3984c-1.75781 2.00195-3.41797 2.49023-5.76172 0.146484l-5.85938-5.81055c-2.34375-2.29492-1.80664-4.00391 0.195312-5.81055l57.373-54.0039-4.88281-4.83398-57.959 54.4434c-4.93164 4.58984-5.32227 9.47266-1.02539 13.8184Zm32.0801-90.9668c-2.09961 2.05078-2.24609 4.93164-1.07422 6.88477 1.17188 1.80664 3.4668 2.97852 6.68945 2.14844 7.32422-1.70898 14.9414-2.00195 22.0703 2.68555l-2.92969 7.27539c-1.70898 4.15039-0.830078 7.08008 1.85547 9.81445l11.4746 11.5723c2.44141 2.44141 4.49219 2.53906 7.32422 2.05078l5.32227-0.976562 3.32031 3.36914-0.195312 2.7832c-0.195312 2.49023 0.439453 4.39453 2.88086 6.78711l3.80859 3.71094c2.39258 2.39258 5.46875 2.53906 7.8125 0.195312l14.5508-14.5996c2.34375-2.34375 2.24609-5.32227-0.146484-7.71484l-3.85742-3.80859c-2.39258-2.39258-4.24805-3.17383-6.64062-2.97852l-2.88086 0.244141-3.22266-3.17383 1.2207-5.61523c0.634766-2.83203-0.146484-5.0293-3.07617-7.95898l-10.9863-10.9375c-16.6992-16.6016-38.8672-16.2109-53.3203-1.75781Zm7.4707 1.85547c12.1582-8.88672 28.6133-7.37305 39.7461 3.75977l12.1582 12.0605c1.17188 1.17188 1.36719 2.09961 1.02539 3.80859l-1.61133 7.42188 7.51953 7.42188 4.93164-0.292969c1.26953-0.0488281 1.66016 0.0488281 2.63672 1.02539l2.88086 2.88086-12.207 12.207-2.88086-2.88086c-0.976562-0.976562-1.12305-1.36719-1.07422-2.68555l0.341797-4.88281-7.4707-7.42188-7.61719 1.26953c-1.61133 0.341797-2.34375 0.195312-3.56445-0.976562l-10.0098-10.0098c-1.26953-1.17188-1.41602-2.00195-0.634766-3.85742l4.39453-10.4492c-7.8125-7.27539-17.9688-10.4004-28.125-7.42188-0.78125 0.195312-1.07422-0.439453-0.439453-0.976562Z"/>
  </g>
  <text style="stroke:none;fill:black;font-family:sans-serif;font-size:13;font-weight:bold;" transform="matrix(1 0 0 1 1289 1953)">Exporting</text>
  <text style="stroke:none;fill:black;font-family:sans-serif;font-size:13;" transform="matrix(1 0 0 1 1289 1971)">Symbols should be outlined when exporting to ensure the</text>
  <text style="stroke:none;fill:black;font-family:sans-serif;font-size:13;" transform="matrix(1 0 0 1 1289 1989)">design is preserved when submitting to Xcode.</text>
  <text id="template-version" style="stroke:none;fill:black;font-family:sans-serif;font-size:13;text-anchor:end;" transform="matrix(1 0 0 1 3036 1933)">Template v.6.0</text>
  <text style="stroke:none;fill:black;font-family:sans-serif;font-size:13;text-anchor:end;" transform="matrix(1 0 0 1 3036 1951)">Requires Xcode 16 or greater</text>
  <text id="descriptive-name" style="stroke:none;fill:black;font-family:sans-serif;font-size:13;text-anchor:end;" transform="matrix(1 0 0 1 3036 1969)">Generated from globulon.logo.SFSymbol</text>
  <text style="stroke:none;fill:black;font-family:sans-serif;font-size:13;text-anchor:end;" transform="matrix(1 0 0 1 3036 1987)">Typeset at 100.0 points</text>
  <text style="stroke:none;fill:black;font-family:sans-serif;font-size:13;" transform="matrix(1 0 0 1 263 726)">Small</text>
  <text style="stroke:none;fill:black;font-family:sans-serif;font-size:13;" transform="matrix(1 0 0 1 263 1156)">Medium</text>
  <text style="stroke:none;fill:black;font-family:sans-serif;font-size:13;" transform="matrix(1 0 0 1 263 1586)">Large</text>
 </g>
 <g id="Guides">
  <g id="H-reference" style="fill:#27AAE1;stroke:none;" transform="matrix(1 0 0 1 339 696)">
   <path d="M0.993654 0L3.63775 0L29.3281-67.1323L30.0303-67.1323L30.0303-70.459L28.1226-70.459ZM11.6885-24.4799L46.9815-24.4799L46.2315-26.7285L12.4385-26.7285ZM55.1196 0L57.7637 0L30.6382-70.459L29.4326-70.459L29.4326-67.1323Z"/>
  </g>
  <line id="Baseline-S" style="fill:none;stroke:#27AAE1;opacity:1;stroke-width:0.5;" x1="263" x2="3036" y1="696" y2="696"/>
  <line id="Capline-S" style="fill:none;stroke:#27AAE1;opacity:1;stroke-width:0.5;" x1="263" x2="3036" y1="625.541" y2="625.541"/>
  <g id="H-reference" style="fill:#27AAE1;stroke:none;" transform="matrix(1 0 0 1 339 1126)">
   <path d="M0.993654 0L3.63775 0L29.3281-67.1323L30.0303-67.1323L30.0303-70.459L28.1226-70.459ZM11.6885-24.4799L46.9815-24.4799L46.2315-26.7285L12.4385-26.7285ZM55.1196 0L57.7637 0L30.6382-70.459L29.4326-70.459L29.4326-67.1323Z"/>
  </g>
  <line id="Baseline-M" style="fill:none;stroke:#27AAE1;opacity:1;stroke-width:0.5;" x1="263" x2="3036" y1="1126" y2="1126"/>
  <line id="Capline-M" style="fill:none;stroke:#27AAE1;opacity:1;stroke-width:0.5;" x1="263" x2="3036" y1="1055.54" y2="1055.54"/>
  <g id="H-reference" style="fill:#27AAE1;stroke:none;" transform="matrix(1 0 0 1 339 1556)">
   <path d="M0.993654 0L3.63775 0L29.3281-67.1323L30.0303-67.1323L30.0303-70.459L28.1226-70.459ZM11.6885-24.4799L46.9815-24.4799L46.2315-26.7285L12.4385-26.7285ZM55.1196 0L57.7637 0L30.6382-70.459L29.4326-70.459L29.4326-67.1323Z"/>
  </g>
  <line id="Baseline-L" style="fill:none;stroke:#27AAE1;opacity:1;stroke-width:0.5;" x1="263" x2="3036" y1="1556" y2="1556"/>
  <line id="Capline-L" style="fill:none;stroke:#27AAE1;opacity:1;stroke-width:0.5;" x1="263" x2="3036" y1="1485.54" y2="1485.54"/>
  <line id="right-margin-Regular-M" style="fill:none;stroke:#00AEEF;stroke-width:0.5;opacity:1.0;" x1="1485.76" x2="1485.76" y1="1030.79" y2="1150.12"/>
  <line id="left-margin-Regular-M" style="fill:none;stroke:#00AEEF;stroke-width:0.5;opacity:1.0;" x1="1413.93" x2="1413.93" y1="1030.79" y2="1150.12"/>
  <line id="right-margin-Black-S" style="fill:none;stroke:#00AEEF;stroke-width:0.5;opacity:1.0;" x1="2961.73" x2="2961.73" y1="600.785" y2="720.121"/>
  <line id="left-margin-Black-S" style="fill:none;stroke:#00AEEF;stroke-width:0.5;opacity:1.0;" x1="2905.07" x2="2905.07" y1="600.785" y2="720.121"/>
  <line id="right-margin-Regular-S" style="fill:none;stroke:#00AEEF;stroke-width:0.5;opacity:1.0;" x1="1478.17" x2="1478.17" y1="600.785" y2="720.121"/>
  <line id="left-margin-Regular-S" style="fill:none;stroke:#00AEEF;stroke-width:0.5;opacity:1.0;" x1="1421.51" x2="1421.51" y1="600.785" y2="720.121"/>
  <line id="right-margin-Ultralight-S" style="fill:none;stroke:#00AEEF;stroke-width:0.5;opacity:1.0;" x1="588.041" x2="588.041" y1="600.785" y2="720.121"/>
  <line id="left-margin-Ultralight-S" style="fill:none;stroke:#00AEEF;stroke-width:0.5;opacity:1.0;" x1="531.381" x2="531.381" y1="600.785" y2="720.121"/>
 </g>
 <g id="Symbols">
  <g id="Black-L" transform="matrix(1 0 0 1 2887.35 1556)">
   <path class="SFSymbolsPreviewWireframe" d="M80.0481-3.40617C80.0481 4.01183 74.0341 10.0258 66.6151 10.0258C59.1961 10.0258 53.1821 4.01183 53.1821-3.40617C53.1821-10.8252 59.1961-16.8392 66.6151-16.8392C74.0341-16.8392 80.0481-10.8252 80.0481-3.40617ZM90.5441-61.4782C90.5441-51.0922 82.1241-42.6732 71.7381-42.6732C61.3521-42.6732 52.9321-51.0922 52.9321-61.4782C52.9321-71.8642 61.3521-80.2842 71.7381-80.2842C82.1241-80.2842 90.5441-71.8642 90.5441-61.4782ZM54.0941-31.9792C54.0941-17.1422 42.0661-5.11417 27.2281-5.11417C12.3911-5.11417 0.363093-17.1422 0.363093-31.9792C0.363093-46.8162 12.3911-58.8442 27.2281-58.8442C42.0661-58.8442 54.0941-46.8162 54.0941-31.9792Z"/>
  </g>
  <g id="Heavy-L" transform="matrix(1 0 0 1 2590.64 1556)">
   <path class="SFSymbolsPreviewWireframe" d="M80.0481-3.40617C80.0481 4.01183 74.0341 10.0258 66.6151 10.0258C59.1961 10.0258 53.1821 4.01183 53.1821-3.40617C53.1821-10.8252 59.1961-16.8392 66.6151-16.8392C74.0341-16.8392 80.0481-10.8252 80.0481-3.40617ZM90.5441-61.4782C90.5441-51.0922 82.1241-42.6732 71.7381-42.6732C61.3521-42.6732 52.9321-51.0922 52.9321-61.4782C52.9321-71.8642 61.3521-80.2842 71.7381-80.2842C82.1241-80.2842 90.5441-71.8642 90.5441-61.4782ZM54.0941-31.9792C54.0941-17.1422 42.0661-5.11417 27.2281-5.11417C12.3911-5.11417 0.363093-17.1422 0.363093-31.9792C0.363093-46.8162 12.3911-58.8442 27.2281-58.8442C42.0661-58.8442 54.0941-46.8162 54.0941-31.9792Z"/>
  </g>
  <g id="Bold-L" transform="matrix(1 0 0 1 2293.93 1556)">
   <path class="SFSymbolsPreviewWireframe" d="M80.0481-3.40617C80.0481 4.01183 74.0341 10.0258 66.6151 10.0258C59.1961 10.0258 53.1821 4.01183 53.1821-3.40617C53.1821-10.8252 59.1961-16.8392 66.6151-16.8392C74.0341-16.8392 80.0481-10.8252 80.0481-3.40617ZM90.5441-61.4782C90.5441-51.0922 82.1241-42.6732 71.7381-42.6732C61.3521-42.6732 52.9321-51.0922 52.9321-61.4782C52.9321-71.8642 61.3521-80.2842 71.7381-80.2842C82.1241-80.2842 90.5441-71.8642 90.5441-61.4782ZM54.0941-31.9792C54.0941-17.1422 42.0661-5.11417 27.2281-5.11417C12.3911-5.11417 0.363093-17.1422 0.363093-31.9792C0.363093-46.8162 12.3911-58.8442 27.2281-58.8442C42.0661-58.8442 54.0941-46.8162 54.0941-31.9792Z"/>
  </g>
  <g id="Semibold-L" transform="matrix(1 0 0 1 1997.21 1556)">
   <path class="SFSymbolsPreviewWireframe" d="M80.0481-3.40617C80.0481 4.01183 74.0341 10.0258 66.6151 10.0258C59.1961 10.0258 53.1821 4.01183 53.1821-3.40617C53.1821-10.8252 59.1961-16.8392 66.6151-16.8392C74.0341-16.8392 80.0481-10.8252 80.0481-3.40617ZM90.5441-61.4782C90.5441-51.0922 82.1241-42.6732 71.7381-42.6732C61.3521-42.6732 52.9321-51.0922 52.9321-61.4782C52.9321-71.8642 61.3521-80.2842 71.7381-80.2842C82.1241-80.2842 90.5441-71.8642 90.5441-61.4782ZM54.0941-31.9792C54.0941-17.1422 42.0661-5.11417 27.2281-5.11417C12.3911-5.11417 0.363093-17.1422 0.363093-31.9792C0.363093-46.8162 12.3911-58.8442 27.2281-58.8442C42.0661-58.8442 54.0941-46.8162 54.0941-31.9792Z"/>
  </g>
  <g id="Medium-L" transform="matrix(1 0 0 1 1700.5 1556)">
   <path class="SFSymbolsPreviewWireframe" d="M80.0481-3.40617C80.0481 4.01183 74.0341 10.0258 66.6151 10.0258C59.1961 10.0258 53.1821 4.01183 53.1821-3.40617C53.1821-10.8252 59.1961-16.8392 66.6151-16.8392C74.0341-16.8392 80.0481-10.8252 80.0481-3.40617ZM90.5441-61.4782C90.5441-51.0922 82.1241-42.6732 71.7381-42.6732C61.3521-42.6732 52.9321-51.0922 52.9321-61.4782C52.9321-71.8642 61.3521-80.2842 71.7381-80.2842C82.1241-80.2842 90.5441-71.8642 90.5441-61.4782ZM54.0941-31.9792C54.0941-17.1422 42.0661-5.11417 27.2281-5.11417C12.3911-5.11417 0.363093-17.1422 0.363093-31.9792C0.363093-46.8162 12.3911-58.8442 27.2281-58.8442C42.0661-58.8442 54.0941-46.8162 54.0941-31.9792Z"/>
  </g>
  <g id="Regular-L" transform="matrix(1 0 0 1 1403.79 1556)">
   <path class="SFSymbolsPreviewWireframe" d="M80.0481-3.40617C80.0481 4.01183 74.0341 10.0258 66.6151 10.0258C59.1961 10.0258 53.1821 4.01183 53.1821-3.40617C53.1821-10.8252 59.1961-16.8392 66.6151-16.8392C74.0341-16.8392 80.0481-10.8252 80.0481-3.40617ZM90.5441-61.4782C90.5441-51.0922 82.1241-42.6732 71.7381-42.6732C61.3521-42.6732 52.9321-51.0922 52.9321-61.4782C52.9321-71.8642 61.3521-80.2842 71.7381-80.2842C82.1241-80.2842 90.5441-71.8642 90.5441-61.4782ZM54.0941-31.9792C54.0941-17.1422 42.0661-5.11417 27.2281-5.11417C12.3911-5.11417 0.363093-17.1422 0.363093-31.9792C0.363093-46.8162 12.3911-58.8442 27.2281-58.8442C42.0661-58.8442 54.0941-46.8162 54.0941-31.9792Z"/>
  </g>
  <g id="Light-L" transform="matrix(1 0 0 1 1107.08 1556)">
   <path class="SFSymbolsPreviewWireframe" d="M80.0481-3.40617C80.0481 4.01183 74.0341 10.0258 66.6151 10.0258C59.1961 10.0258 53.1821 4.01183 53.1821-3.40617C53.1821-10.8252 59.1961-16.8392 66.6151-16.8392C74.0341-16.8392 80.0481-10.8252 80.0481-3.40617ZM90.5441-61.4782C90.5441-51.0922 82.1241-42.6732 71.7381-42.6732C61.3521-42.6732 52.9321-51.0922 52.9321-61.4782C52.9321-71.8642 61.3521-80.2842 71.7381-80.2842C82.1241-80.2842 90.5441-71.8642 90.5441-61.4782ZM54.0941-31.9792C54.0941-17.1422 42.0661-5.11417 27.2281-5.11417C12.3911-5.11417 0.363093-17.1422 0.363093-31.9792C0.363093-46.8162 12.3911-58.8442 27.2281-58.8442C42.0661-58.8442 54.0941-46.8162 54.0941-31.9792Z"/>
  </g>
  <g id="Thin-L" transform="matrix(1 0 0 1 810.37 1556)">
   <path class="SFSymbolsPreviewWireframe" d="M80.0481-3.40617C80.0481 4.01183 74.0341 10.0258 66.6151 10.0258C59.1961 10.0258 53.1821 4.01183 53.1821-3.40617C53.1821-10.8252 59.1961-16.8392 66.6151-16.8392C74.0341-16.8392 80.0481-10.8252 80.0481-3.40617ZM90.5441-61.4782C90.5441-51.0922 82.1241-42.6732 71.7381-42.6732C61.3521-42.6732 52.9321-51.0922 52.9321-61.4782C52.9321-71.8642 61.3521-80.2842 71.7381-80.2842C82.1241-80.2842 90.5441-71.8642 90.5441-61.4782ZM54.0941-31.9792C54.0941-17.1422 42.0661-5.11417 27.2281-5.11417C12.3911-5.11417 0.363093-17.1422 0.363093-31.9792C0.363093-46.8162 12.3911-58.8442 27.2281-58.8442C42.0661-58.8442 54.0941-46.8162 54.0941-31.9792Z"/>
  </g>
  <g id="Ultralight-L" transform="matrix(1 0 0 1 513.659 1556)">
   <path class="SFSymbolsPreviewWireframe" d="M80.0481-3.40617C80.0481 4.01183 74.0341 10.0258 66.6151 10.0258C59.1961 10.0258 53.1821 4.01183 53.1821-3.40617C53.1821-10.8252 59.1961-16.8392 66.6151-16.8392C74.0341-16.8392 80.0481-10.8252 80.0481-3.40617ZM90.5441-61.4782C90.5441-51.0922 82.1241-42.6732 71.7381-42.6732C61.3521-42.6732 52.9321-51.0922 52.9321-61.4782C52.9321-71.8642 61.3521-80.2842 71.7381-80.2842C82.1241-80.2842 90.5441-71.8642 90.5441-61.4782ZM54.0941-31.9792C54.0941-17.1422 42.0661-5.11417 27.2281-5.11417C12.3911-5.11417 0.363093-17.1422 0.363093-31.9792C0.363093-46.8162 12.3911-58.8442 27.2281-58.8442C42.0661-58.8442 54.0941-46.8162 54.0941-31.9792Z"/>
  </g>
  <g id="Black-M" transform="matrix(1 0 0 1 2897.49 1126)">
   <path class="SFSymbolsPreviewWireframe" d="M62.1341-10.5603C62.1341-4.80929 57.4721-0.147289 51.7211-0.147289C45.9701-0.147289 41.3081-4.80929 41.3081-10.5603C41.3081-16.3113 45.9701-20.9733 51.7211-20.9733C57.4721-20.9733 62.1341-16.3113 62.1341-10.5603ZM70.2701-55.5773C70.2701-47.5263 63.7431-40.9993 55.6921-40.9993C47.6411-40.9993 41.1141-47.5263 41.1141-55.5773C41.1141-63.6293 47.6411-70.1553 55.6921-70.1553C63.7431-70.1553 70.2701-63.6293 70.2701-55.5773ZM42.0141-32.7103C42.0141-21.2083 32.6901-11.8843 21.1881-11.8843C9.68709-11.8843 0.363093-21.2083 0.363093-32.7103C0.363093-44.2123 9.68709-53.5363 21.1881-53.5363C32.6901-53.5363 42.0141-44.2123 42.0141-32.7103Z"/>
  </g>
  <g id="Heavy-M" transform="matrix(1 0 0 1 2600.77 1126)">
   <path class="SFSymbolsPreviewWireframe" d="M62.1341-10.5603C62.1341-4.80929 57.4721-0.147289 51.7211-0.147289C45.9701-0.147289 41.3081-4.80929 41.3081-10.5603C41.3081-16.3113 45.9701-20.9733 51.7211-20.9733C57.4721-20.9733 62.1341-16.3113 62.1341-10.5603ZM70.2701-55.5773C70.2701-47.5263 63.7431-40.9993 55.6921-40.9993C47.6411-40.9993 41.1141-47.5263 41.1141-55.5773C41.1141-63.6293 47.6411-70.1553 55.6921-70.1553C63.7431-70.1553 70.2701-63.6293 70.2701-55.5773ZM42.0141-32.7103C42.0141-21.2083 32.6901-11.8843 21.1881-11.8843C9.68709-11.8843 0.363093-21.2083 0.363093-32.7103C0.363093-44.2123 9.68709-53.5363 21.1881-53.5363C32.6901-53.5363 42.0141-44.2123 42.0141-32.7103Z"/>
  </g>
  <g id="Bold-M" transform="matrix(1 0 0 1 2304.06 1126)">
   <path class="SFSymbolsPreviewWireframe" d="M62.1341-10.5603C62.1341-4.80929 57.4721-0.147289 51.7211-0.147289C45.9701-0.147289 41.3081-4.80929 41.3081-10.5603C41.3081-16.3113 45.9701-20.9733 51.7211-20.9733C57.4721-20.9733 62.1341-16.3113 62.1341-10.5603ZM70.2701-55.5773C70.2701-47.5263 63.7431-40.9993 55.6921-40.9993C47.6411-40.9993 41.1141-47.5263 41.1141-55.5773C41.1141-63.6293 47.6411-70.1553 55.6921-70.1553C63.7431-70.1553 70.2701-63.6293 70.2701-55.5773ZM42.0141-32.7103C42.0141-21.2083 32.6901-11.8843 21.1881-11.8843C9.68709-11.8843 0.363093-21.2083 0.363093-32.7103C0.363093-44.2123 9.68709-53.5363 21.1881-53.5363C32.6901-53.5363 42.0141-44.2123 42.0141-32.7103Z"/>
  </g>
  <g id="Semibold-M" transform="matrix(1 0 0 1 2007.35 1126)">
   <path class="SFSymbolsPreviewWireframe" d="M62.1341-10.5603C62.1341-4.80929 57.4721-0.147289 51.7211-0.147289C45.9701-0.147289 41.3081-4.80929 41.3081-10.5603C41.3081-16.3113 45.9701-20.9733 51.7211-20.9733C57.4721-20.9733 62.1341-16.3113 62.1341-10.5603ZM70.2701-55.5773C70.2701-47.5263 63.7431-40.9993 55.6921-40.9993C47.6411-40.9993 41.1141-47.5263 41.1141-55.5773C41.1141-63.6293 47.6411-70.1553 55.6921-70.1553C63.7431-70.1553 70.2701-63.6293 70.2701-55.5773ZM42.0141-32.7103C42.0141-21.2083 32.6901-11.8843 21.1881-11.8843C9.68709-11.8843 0.363093-21.2083 0.363093-32.7103C0.363093-44.2123 9.68709-53.5363 21.1881-53.5363C32.6901-53.5363 42.0141-44.2123 42.0141-32.7103Z"/>
  </g>
  <g id="Medium-M" transform="matrix(1 0 0 1 1710.64 1126)">
   <path class="SFSymbolsPreviewWireframe" d="M62.1341-10.5603C62.1341-4.80929 57.4721-0.147289 51.7211-0.147289C45.9701-0.147289 41.3081-4.80929 41.3081-10.5603C41.3081-16.3113 45.9701-20.9733 51.7211-20.9733C57.4721-20.9733 62.1341-16.3113 62.1341-10.5603ZM70.2701-55.5773C70.2701-47.5263 63.7431-40.9993 55.6921-40.9993C47.6411-40.9993 41.1141-47.5263 41.1141-55.5773C41.1141-63.6293 47.6411-70.1553 55.6921-70.1553C63.7431-70.1553 70.2701-63.6293 70.2701-55.5773ZM42.0141-32.7103C42.0141-21.2083 32.6901-11.8843 21.1881-11.8843C9.68709-11.8843 0.363093-21.2083 0.363093-32.7103C0.363093-44.2123 9.68709-53.5363 21.1881-53.5363C32.6901-53.5363 42.0141-44.2123 42.0141-32.7103Z"/>
  </g>
  <g id="Regular-M" transform="matrix(1 0 0 1 1413.93 1126)">
   <path class="SFSymbolsPreviewWireframe" d="M62.1341-10.5603C62.1341-4.80929 57.4721-0.147289 51.7211-0.147289C45.9701-0.147289 41.3081-4.80929 41.3081-10.5603C41.3081-16.3113 45.9701-20.9733 51.7211-20.9733C57.4721-20.9733 62.1341-16.3113 62.1341-10.5603ZM70.2701-55.5773C70.2701-47.5263 63.7431-40.9993 55.6921-40.9993C47.6411-40.9993 41.1141-47.5263 41.1141-55.5773C41.1141-63.6293 47.6411-70.1553 55.6921-70.1553C63.7431-70.1553 70.2701-63.6293 70.2701-55.5773ZM42.0141-32.7103C42.0141-21.2083 32.6901-11.8843 21.1881-11.8843C9.68709-11.8843 0.363093-21.2083 0.363093-32.7103C0.363093-44.2123 9.68709-53.5363 21.1881-53.5363C32.6901-53.5363 42.0141-44.2123 42.0141-32.7103Z"/>
  </g>
  <g id="Light-M" transform="matrix(1 0 0 1 1117.22 1126)">
   <path class="SFSymbolsPreviewWireframe" d="M62.1341-10.5603C62.1341-4.80929 57.4721-0.147289 51.7211-0.147289C45.9701-0.147289 41.3081-4.80929 41.3081-10.5603C41.3081-16.3113 45.9701-20.9733 51.7211-20.9733C57.4721-20.9733 62.1341-16.3113 62.1341-10.5603ZM70.2701-55.5773C70.2701-47.5263 63.7431-40.9993 55.6921-40.9993C47.6411-40.9993 41.1141-47.5263 41.1141-55.5773C41.1141-63.6293 47.6411-70.1553 55.6921-70.1553C63.7431-70.1553 70.2701-63.6293 70.2701-55.5773ZM42.0141-32.7103C42.0141-21.2083 32.6901-11.8843 21.1881-11.8843C9.68709-11.8843 0.363093-21.2083 0.363093-32.7103C0.363093-44.2123 9.68709-53.5363 21.1881-53.5363C32.6901-53.5363 42.0141-44.2123 42.0141-32.7103Z"/>
  </g>
  <g id="Thin-M" transform="matrix(1 0 0 1 820.507 1126)">
   <path class="SFSymbolsPreviewWireframe" d="M62.1341-10.5603C62.1341-4.80929 57.4721-0.147289 51.7211-0.147289C45.9701-0.147289 41.3081-4.80929 41.3081-10.5603C41.3081-16.3113 45.9701-20.9733 51.7211-20.9733C57.4721-20.9733 62.1341-16.3113 62.1341-10.5603ZM70.2701-55.5773C70.2701-47.5263 63.7431-40.9993 55.6921-40.9993C47.6411-40.9993 41.1141-47.5263 41.1141-55.5773C41.1141-63.6293 47.6411-70.1553 55.6921-70.1553C63.7431-70.1553 70.2701-63.6293 70.2701-55.5773ZM42.0141-32.7103C42.0141-21.2083 32.6901-11.8843 21.1881-11.8843C9.68709-11.8843 0.363093-21.2083 0.363093-32.7103C0.363093-44.2123 9.68709-53.5363 21.1881-53.5363C32.6901-53.5363 42.0141-44.2123 42.0141-32.7103Z"/>
  </g>
  <g id="Ultralight-M" transform="matrix(1 0 0 1 523.796 1126)">
   <path class="SFSymbolsPreviewWireframe" d="M62.1341-10.5603C62.1341-4.80929 57.4721-0.147289 51.7211-0.147289C45.9701-0.147289 41.3081-4.80929 41.3081-10.5603C41.3081-16.3113 45.9701-20.9733 51.7211-20.9733C57.4721-20.9733 62.1341-16.3113 62.1341-10.5603ZM70.2701-55.5773C70.2701-47.5263 63.7431-40.9993 55.6921-40.9993C47.6411-40.9993 41.1141-47.5263 41.1141-55.5773C41.1141-63.6293 47.6411-70.1553 55.6921-70.1553C63.7431-70.1553 70.2701-63.6293 70.2701-55.5773ZM42.0141-32.7103C42.0141-21.2083 32.6901-11.8843 21.1881-11.8843C9.68709-11.8843 0.363093-21.2083 0.363093-32.7103C0.363093-44.2123 9.68709-53.5363 21.1881-53.5363C32.6901-53.5363 42.0141-44.2123 42.0141-32.7103Z"/>
  </g>
  <g id="Black-S" transform="matrix(1 0 0 1 2905.07 696)">
   <path class="SFSymbolsPreviewWireframe" d="M48.7291-15.914C48.7291-11.411 45.0791-7.76095 40.5761-7.76095C36.0731-7.76095 32.4231-11.411 32.4231-15.914C32.4231-20.417 36.0731-24.067 40.5761-24.067C45.0791-24.067 48.7291-20.417 48.7291-15.914ZM55.1001-51.162C55.1001-44.858 49.9891-39.748 43.6851-39.748C37.3811-39.748 32.2711-44.858 32.2711-51.162C32.2711-57.466 37.3811-62.577 43.6851-62.577C49.9891-62.577 55.1001-57.466 55.1001-51.162ZM32.9761-33.257C32.9761-24.251 25.6751-16.95 16.6691-16.95C7.66309-16.95 0.363093-24.251 0.363093-33.257C0.363093-42.263 7.66309-49.564 16.6691-49.564C25.6751-49.564 32.9761-42.263 32.9761-33.257Z"/>
  </g>
  <g id="Heavy-S" transform="matrix(1 0 0 1 2608.36 696)">
   <path class="SFSymbolsPreviewWireframe" d="M48.7291-15.914C48.7291-11.411 45.0791-7.76095 40.5761-7.76095C36.0731-7.76095 32.4231-11.411 32.4231-15.914C32.4231-20.417 36.0731-24.067 40.5761-24.067C45.0791-24.067 48.7291-20.417 48.7291-15.914ZM55.1001-51.162C55.1001-44.858 49.9891-39.748 43.6851-39.748C37.3811-39.748 32.2711-44.858 32.2711-51.162C32.2711-57.466 37.3811-62.577 43.6851-62.577C49.9891-62.577 55.1001-57.466 55.1001-51.162ZM32.9761-33.257C32.9761-24.251 25.6751-16.95 16.6691-16.95C7.66309-16.95 0.363093-24.251 0.363093-33.257C0.363093-42.263 7.66309-49.564 16.6691-49.564C25.6751-49.564 32.9761-42.263 32.9761-33.257Z"/>
  </g>
  <g id="Bold-S" transform="matrix(1 0 0 1 2311.65 696)">
   <path class="SFSymbolsPreviewWireframe" d="M48.7291-15.914C48.7291-11.411 45.0791-7.76095 40.5761-7.76095C36.0731-7.76095 32.4231-11.411 32.4231-15.914C32.4231-20.417 36.0731-24.067 40.5761-24.067C45.0791-24.067 48.7291-20.417 48.7291-15.914ZM55.1001-51.162C55.1001-44.858 49.9891-39.748 43.6851-39.748C37.3811-39.748 32.2711-44.858 32.2711-51.162C32.2711-57.466 37.3811-62.577 43.6851-62.577C49.9891-62.577 55.1001-57.466 55.1001-51.162ZM32.9761-33.257C32.9761-24.251 25.6751-16.95 16.6691-16.95C7.66309-16.95 0.363093-24.251 0.363093-33.257C0.363093-42.263 7.66309-49.564 16.6691-49.564C25.6751-49.564 32.9761-42.263 32.9761-33.257Z"/>
  </g>
  <g id="Semibold-S" transform="matrix(1 0 0 1 2014.94 696)">
   <path class="SFSymbolsPreviewWireframe" d="M48.7291-15.914C48.7291-11.411 45.0791-7.76095 40.5761-7.76095C36.0731-7.76095 32.4231-11.411 32.4231-15.914C32.4231-20.417 36.0731-24.067 40.5761-24.067C45.0791-24.067 48.7291-20.417 48.7291-15.914ZM55.1001-51.162C55.1001-44.858 49.9891-39.748 43.6851-39.748C37.3811-39.748 32.2711-44.858 32.2711-51.162C32.2711-57.466 37.3811-62.577 43.6851-62.577C49.9891-62.577 55.1001-57.466 55.1001-51.162ZM32.9761-33.257C32.9761-24.251 25.6751-16.95 16.6691-16.95C7.66309-16.95 0.363093-24.251 0.363093-33.257C0.363093-42.263 7.66309-49.564 16.6691-49.564C25.6751-49.564 32.9761-42.263 32.9761-33.257Z"/>
  </g>
  <g id="Medium-S" transform="matrix(1 0 0 1 1718.23 696)">
   <path class="SFSymbolsPreviewWireframe" d="M48.7291-15.914C48.7291-11.411 45.0791-7.76095 40.5761-7.76095C36.0731-7.76095 32.4231-11.411 32.4231-15.914C32.4231-20.417 36.0731-24.067 40.5761-24.067C45.0791-24.067 48.7291-20.417 48.7291-15.914ZM55.1001-51.162C55.1001-44.858 49.9891-39.748 43.6851-39.748C37.3811-39.748 32.2711-44.858 32.2711-51.162C32.2711-57.466 37.3811-62.577 43.6851-62.577C49.9891-62.577 55.1001-57.466 55.1001-51.162ZM32.9761-33.257C32.9761-24.251 25.6751-16.95 16.6691-16.95C7.66309-16.95 0.363093-24.251 0.363093-33.257C0.363093-42.263 7.66309-49.564 16.6691-49.564C25.6751-49.564 32.9761-42.263 32.9761-33.257Z"/>
  </g>
  <g id="Regular-S" transform="matrix(1 0 0 1 1421.51 696)">
   <path class="SFSymbolsPreviewWireframe" d="M48.7291-15.914C48.7291-11.411 45.0791-7.76095 40.5761-7.76095C36.0731-7.76095 32.4231-11.411 32.4231-15.914C32.4231-20.417 36.0731-24.067 40.5761-24.067C45.0791-24.067 48.7291-20.417 48.7291-15.914ZM55.1001-51.162C55.1001-44.858 49.9891-39.748 43.6851-39.748C37.3811-39.748 32.2711-44.858 32.2711-51.162C32.2711-57.466 37.3811-62.577 43.6851-62.577C49.9891-62.577 55.1001-57.466 55.1001-51.162ZM32.9761-33.257C32.9761-24.251 25.6751-16.95 16.6691-16.95C7.66309-16.95 0.363093-24.251 0.363093-33.257C0.363093-42.263 7.66309-49.564 16.6691-49.564C25.6751-49.564 32.9761-42.263 32.9761-33.257Z"/>
  </g>
  <g id="Light-S" transform="matrix(1 0 0 1 1124.8 696)">
   <path class="SFSymbolsPreviewWireframe" d="M48.7291-15.914C48.7291-11.411 45.0791-7.76095 40.5761-7.76095C36.0731-7.76095 32.4231-11.411 32.4231-15.914C32.4231-20.417 36.0731-24.067 40.5761-24.067C45.0791-24.067 48.7291-20.417 48.7291-15.914ZM55.1001-51.162C55.1001-44.858 49.9891-39.748 43.6851-39.748C37.3811-39.748 32.2711-44.858 32.2711-51.162C32.2711-57.466 37.3811-62.577 43.6851-62.577C49.9891-62.577 55.1001-57.466 55.1001-51.162ZM32.9761-33.257C32.9761-24.251 25.6751-16.95 16.6691-16.95C7.66309-16.95 0.363093-24.251 0.363093-33.257C0.363093-42.263 7.66309-49.564 16.6691-49.564C25.6751-49.564 32.9761-42.263 32.9761-33.257Z"/>
  </g>
  <g id="Thin-S" transform="matrix(1 0 0 1 828.092 696)">
   <path class="SFSymbolsPreviewWireframe" d="M48.7291-15.914C48.7291-11.411 45.0791-7.76095 40.5761-7.76095C36.0731-7.76095 32.4231-11.411 32.4231-15.914C32.4231-20.417 36.0731-24.067 40.5761-24.067C45.0791-24.067 48.7291-20.417 48.7291-15.914ZM55.1001-51.162C55.1001-44.858 49.9891-39.748 43.6851-39.748C37.3811-39.748 32.2711-44.858 32.2711-51.162C32.2711-57.466 37.3811-62.577 43.6851-62.577C49.9891-62.577 55.1001-57.466 55.1001-51.162ZM32.9761-33.257C32.9761-24.251 25.6751-16.95 16.6691-16.95C7.66309-16.95 0.363093-24.251 0.363093-33.257C0.363093-42.263 7.66309-49.564 16.6691-49.564C25.6751-49.564 32.9761-42.263 32.9761-33.257Z"/>
  </g>
  <g id="Ultralight-S" transform="matrix(1 0 0 1 531.381 696)">
   <path class="SFSymbolsPreviewWireframe" d="M48.7291-15.914C48.7291-11.411 45.0791-7.76095 40.5761-7.76095C36.0731-7.76095 32.4231-11.411 32.4231-15.914C32.4231-20.417 36.0731-24.067 40.5761-24.067C45.0791-24.067 48.7291-20.417 48.7291-15.914ZM55.1001-51.162C55.1001-44.858 49.9891-39.748 43.6851-39.748C37.3811-39.748 32.2711-44.858 32.2711-51.162C32.2711-57.466 37.3811-62.577 43.6851-62.577C49.9891-62.577 55.1001-57.466 55.1001-51.162ZM32.9761-33.257C32.9761-24.251 25.6751-16.95 16.6691-16.95C7.66309-16.95 0.363093-24.251 0.363093-33.257C0.363093-42.263 7.66309-49.564 16.6691-49.564C25.6751-49.564 32.9761-42.263 32.9761-33.257Z"/>
  </g>
 </g>
</svg>
